<svg width="38" height="25" viewBox="0 0 40 33" fill="none" xmlns="http://www.w3.org/2000/svg">
<path d="M16.9906 22.1357C17.0655 21.5885 16.6827 21.0842 16.1355 21.0093C15.5883 20.9343 15.084 21.3171 15.0091 21.8643L16.9906 22.1357ZM14.9998 29.3L14.0091 29.1643C14.0029 29.2093 13.9998 29.2546 13.9998 29.3H14.9998ZM9.0998 29.5L8.1042 29.5937C8.10744 29.6281 8.11245 29.6623 8.11922 29.6961L9.0998 29.5ZM9.2954 20.9063C9.24365 20.3564 8.75596 19.9526 8.2061 20.0044C7.65625 20.0562 7.25245 20.5438 7.3042 21.0937L9.2954 20.9063ZM30 3.6H31H30ZM39 14C39.5523 14 40 13.5523 40 13C40 12.4477 39.5523 12 39 12V14ZM35 12C34.4477 12 34 12.4477 34 13C34 13.5523 34.4477 14 35 14V12ZM38.4506 21.8354C38.912 22.139 39.5321 22.011 39.8356 21.5496C40.1392 21.0882 40.0112 20.4681 39.5498 20.1646L38.4506 21.8354ZM35.7498 17.6646C35.2884 17.361 34.6683 17.489 34.3648 17.9504C34.0612 18.4118 34.1892 19.0319 34.6506 19.3354L35.7498 17.6646ZM39.5649 6.42541C40.0207 6.11354 40.1374 5.49122 39.8255 5.03541C39.5136 4.57961 38.8913 4.46292 38.4355 4.77479L39.5649 6.42541ZM34.6355 7.37479C34.1797 7.68666 34.063 8.30898 34.3749 8.76478C34.6868 9.22059 35.3091 9.33727 35.7649 9.0254L34.6355 7.37479ZM15.0091 21.8643L14.0091 29.1643L15.9906 29.4357L16.9906 22.1357L15.0091 21.8643ZM13.9998 29.3C13.9998 30.1993 13.2973 30.9 12.4998 30.9V32.9C14.5023 32.9 15.9998 31.2007 15.9998 29.3H13.9998ZM12.4998 30.9C11.8737 30.9 11.3226 30.8066 10.9134 30.5775C10.5531 30.3757 10.2253 30.0285 10.0804 29.3039L8.11922 29.6961C8.3743 30.9715 9.04652 31.8243 9.9362 32.3225C10.777 32.7934 11.7259 32.9 12.4998 32.9V30.9ZM10.0954 29.4063L9.2954 20.9063L7.3042 21.0937L8.1042 29.5937L10.0954 29.4063ZM24 1V26H26V1H24ZM27.4 0H26.9V2H27.4V0ZM26.9 0C24.6014 0 23.0043 0.327204 21.7168 0.85631C20.4529 1.37571 19.5263 2.08152 18.6599 2.67497C17.7863 3.27336 16.8746 3.83676 15.4952 4.2634C14.1018 4.69434 12.182 5 9.3 5V7C12.318 7 14.4482 6.68066 16.0861 6.1741C17.7379 5.66324 18.8387 4.97664 19.7901 4.32503C20.7487 3.66848 21.4596 3.12429 22.477 2.70619C23.4707 2.2978 24.7986 2 26.9 2V0ZM9.3 5C9.29922 5 9.29844 5 9.29765 5C9.29687 5 9.29608 5 9.29529 5C9.2945 5 9.29371 5 9.29292 5C9.29212 5 9.29133 5 9.29053 5C9.28974 5 9.28894 5 9.28814 5C9.28734 5 9.28654 5 9.28573 5C9.28493 5 9.28412 5 9.28332 5C9.28251 5 9.2817 5 9.28089 5C9.28008 5 9.27927 5 9.27845 5C9.27764 5 9.27682 5 9.276 5C9.27518 5 9.27436 5 9.27354 5C9.27272 5 9.27189 5 9.27107 5C9.27024 5 9.26942 5 9.26859 5C9.26776 5 9.26693 5 9.2661 5C9.26526 5 9.26443 5 9.26359 5C9.26276 5 9.26192 5 9.26108 5C9.26024 5 9.2594 5 9.25855 5C9.25771 5 9.25687 5 9.25602 5C9.25517 5 9.25432 5 9.25348 5C9.25262 5 9.25177 5 9.25092 5C9.25007 5 9.24921 5 9.24835 5C9.2475 5 9.24664 5 9.24578 5C9.24492 5 9.24406 5 9.24319 5C9.24233 5 9.24147 5 9.2406 5C9.23973 5 9.23886 5 9.23799 5C9.23712 5 9.23625 5 9.23538 5C9.2345 5 9.23363 5 9.23275 5C9.23188 5 9.231 5 9.23012 5C9.22924 5 9.22836 5 9.22747 5C9.22659 5 9.22571 5 9.22482 5C9.22393 5 9.22305 5 9.22216 5C9.22127 5 9.22038 5 9.21948 5C9.21859 5 9.2177 5 9.2168 5C9.2159 5 9.21501 5 9.21411 5C9.21321 5 9.21231 5 9.21141 5C9.2105 5 9.2096 5 9.2087 5C9.20779 5 9.20688 5 9.20598 5C9.20507 5 9.20416 5 9.20325 5C9.20234 5 9.20142 5 9.20051 5C9.1996 5 9.19868 5 9.19776 5C9.19685 5 9.19593 5 9.19501 5C9.19409 5 9.19316 5 9.19224 5C9.19132 5 9.19039 5 9.18947 5C9.18854 5 9.18761 5 9.18669 5C9.18576 5 9.18483 5 9.1839 5C9.18296 5 9.18203 5 9.1811 5C9.18016 5 9.17922 5 9.17829 5C9.17735 5 9.17641 5 9.17547 5C9.17453 5 9.17359 5 9.17264 5C9.1717 5 9.17076 5 9.16981 5C9.16887 5 9.16792 5 9.16697 5C9.16602 5 9.16507 5 9.16412 5C9.16317 5 9.16222 5 9.16126 5C9.16031 5 9.15935 5 9.15839 5C9.15744 5 9.15648 5 9.15552 5C9.15456 5 9.1536 5 9.15264 5C9.15168 5 9.15071 5 9.14975 5C9.14878 5 9.14782 5 9.14685 5C9.14588 5 9.14491 5 9.14394 5C9.14297 5 9.142 5 9.14103 5C9.14006 5 9.13908 5 9.13811 5C9.13713 5 9.13616 5 9.13518 5C9.1342 5 9.13322 5 9.13224 5C9.13126 5 9.13028 5 9.1293 5C9.12831 5 9.12733 5 9.12635 5C9.12536 5 9.12437 5 9.12339 5C9.1224 5 9.12141 5 9.12042 5C9.11943 5 9.11844 5 9.11745 5C9.11645 5 9.11546 5 9.11447 5C9.11347 5 9.11247 5 9.11148 5C9.11048 5 9.10948 5 9.10848 5C9.10748 5 9.10648 5 9.10548 5C9.10448 5 9.10348 5 9.10247 5C9.10147 5 9.10046 5 9.09946 5C9.09845 5 9.09744 5 9.09643 5C9.09542 5 9.09441 5 9.0934 5C9.09239 5 9.09138 5 9.09037 5C9.08935 5 9.08834 5 9.08733 5C9.08631 5 9.08529 5 9.08428 5C9.08326 5 9.08224 5 9.08122 5C9.0802 5 9.07918 5 9.07816 5C9.07714 5 9.07611 5 9.07509 5C9.07407 5 9.07304 5 9.07201 5C9.07099 5 9.06996 5 9.06893 5C9.0679 5 9.06688 5 9.06585 5C9.06482 5 9.06378 5 9.06275 5C9.06172 5 9.06069 5 9.05965 5C9.05862 5 9.05758 5 9.05655 5C9.05551 5 9.05447 5 9.05344 5C9.0524 5 9.05136 5 9.05032 5C9.04928 5 9.04824 5 9.0472 5C9.04615 5 9.04511 5 9.04407 5C9.04302 5 9.04198 5 9.04093 5C9.03989 5 9.03884 5 9.03779 5C9.03674 5 9.0357 5 9.03465 5C9.0336 5 9.03255 5 9.03149 5C9.03044 5 9.02939 5 9.02834 5C9.02728 5 9.02623 5 9.02518 5C9.02412 5 9.02306 5 9.02201 5C9.02095 5 9.01989 5 9.01884 5C9.01778 5 9.01672 5 9.01566 5C9.0146 5 9.01354 5 9.01248 5C9.01141 5 9.01035 5 9.00929 5C9.00822 5 9.00716 5 9.00609 5C9.00503 5 9.00396 5 9.0029 5C9.00183 5 9.00076 5 8.99969 5C8.99862 5 8.99756 5 8.99649 5C8.99542 5 8.99434 5 8.99327 5C8.9922 5 8.99113 5 8.99006 5C8.98898 5 8.98791 5 8.98683 5C8.98576 5 8.98468 5 8.98361 5C8.98253 5 8.98145 5 8.98038 5C8.9793 5 8.97822 5 8.97714 5C8.97606 5 8.97498 5 8.9739 5C8.97282 5 8.97174 5 8.97066 5C8.96958 5 8.96849 5 8.96741 5C8.96633 5 8.96524 5 8.96416 5C8.96307 5 8.96199 5 8.9609 5C8.95982 5 8.95873 5 8.95764 5C8.95655 5 8.95547 5 8.95438 5C8.95329 5 8.9522 5 8.95111 5C8.95002 5 8.94893 5 8.94784 5C8.94674 5 8.94565 5 8.94456 5C8.94347 5 8.94237 5 8.94128 5C8.94019 5 8.93909 5 8.938 5C8.9369 5 8.93581 5 8.93471 5C8.93361 5 8.93252 5 8.93142 5C8.93032 5 8.92922 5 8.92813 5C8.92703 5 8.92593 5 8.92483 5C8.92373 5 8.92263 5 8.92153 5C8.92043 5 8.91932 5 8.91822 5C8.91712 5 8.91602 5 8.91491 5C8.91381 5 8.91271 5 8.9116 5C8.9105 5 8.9094 5 8.90829 5C8.90719 5 8.90608 5 8.90497 5C8.90387 5 8.90276 5 8.90165 5C8.90055 5 8.89944 5 8.89833 5C8.89722 5 8.89611 5 8.895 5C8.8939 5 8.89279 5 8.89168 5C8.89057 5 8.88946 5 8.88835 5C8.88723 5 8.88612 5 8.88501 5C8.8839 5 8.88279 5 8.88167 5C8.88056 5 8.87945 5 8.87834 5C8.87722 5 8.87611 5 8.87499 5C8.87388 5 8.87277 5 8.87165 5C8.87053 5 8.86942 5 8.8683 5C8.86719 5 8.86607 5 8.86495 5C8.86384 5 8.86272 5 8.8616 5C8.86049 5 8.85937 5 8.85825 5C8.85713 5 8.85601 5 8.8549 5C8.85378 5 8.85266 5 8.85154 5C8.85042 5 8.8493 5 8.84818 5C8.84706 5 8.84594 5 8.84482 5C8.8437 5 8.84258 5 8.84145 5C8.84033 5 8.83921 5 8.83809 5C8.83697 5 8.83585 5 8.83472 5C8.8336 5 8.83248 5 8.83135 5C8.83023 5 8.82911 5 8.82798 5C8.82686 5 8.82574 5 8.82461 5C8.82349 5 8.82236 5 8.82124 5C8.82012 5 8.81899 5 8.81787 5C8.81674 5 8.81562 5 8.81449 5C8.81336 5 8.81224 5 8.81111 5C8.80999 5 8.80886 5 8.80773 5C8.80661 5 8.80548 5 8.80436 5C8.80323 5 8.8021 5 8.80097 5C8.79985 5 8.79872 5 8.79759 5C8.79647 5 8.79534 5 8.79421 5C8.79308 5 8.79195 5 8.79083 5C8.7897 5 8.78857 5 8.78744 5C8.78631 5 8.78519 5 8.78406 5C8.78293 5 8.7818 5 8.78067 5C8.77954 5 8.77841 5 8.77728 5C8.77615 5 8.77503 5 8.7739 5C8.77277 5 8.77164 5 8.77051 5C8.76938 5 8.76825 5 8.76712 5C8.76599 5 8.76486 5 8.76373 5C8.7626 5 8.76147 5 8.76034 5C8.75921 5 8.75808 5 8.75695 5C8.75582 5 8.75469 5 8.75356 5C8.75243 5 8.7513 5 8.75017 5C8.74904 5 8.74791 5 8.74678 5C8.74565 5 8.74452 5 8.74339 5C8.74226 5 8.74113 5 8.74 5C8.73887 5 8.73774 5 8.73661 5C8.73548 5 8.73435 5 8.73322 5C8.73209 5 8.73096 5 8.72983 5C8.7287 5 8.72757 5 8.72644 5C8.72531 5 8.72418 5 8.72306 5C8.72193 5 8.7208 5 8.71967 5C8.71854 5 8.71741 5 8.71628 5C8.71515 5 8.71402 5 8.71289 5C8.71176 5 8.71063 5 8.7095 5C8.70837 5 8.70725 5 8.70612 5C8.70499 5 8.70386 5 8.70273 5C8.7016 5 8.70047 5 8.69935 5C8.69822 5 8.69709 5 8.69596 5C8.69483 5 8.69371 5 8.69258 5C8.69145 5 8.69032 5 8.6892 5C8.68807 5 8.68694 5 8.68581 5C8.68469 5 8.68356 5 8.68243 5C8.68131 5 8.68018 5 8.67906 5C8.67793 5 8.6768 5 8.67568 5C8.67455 5 8.67343 5 8.6723 5C8.67118 5 8.67005 5 8.66893 5C8.6678 5 8.66668 5 8.66555 5C8.66443 5 8.6633 5 8.66218 5C8.66105 5 8.65993 5 8.65881 5C8.65768 5 8.65656 5 8.65544 5C8.65431 5 8.65319 5 8.65207 5C8.65095 5 8.64983 5 8.6487 5C8.64758 5 8.64646 5 8.64534 5C8.64422 5 8.6431 5 8.64198 5C8.64086 5 8.63974 5 8.63862 5C8.6375 5 8.63638 5 8.63526 5C8.63414 5 8.63302 5 8.6319 5C8.63078 5 8.62966 5 8.62855 5C8.62743 5 8.62631 5 8.62519 5C8.62408 5 8.62296 5 8.62184 5C8.62073 5 8.61961 5 8.6185 5C8.61738 5 8.61626 5 8.61515 5C8.61403 5 8.61292 5 8.61181 5C8.61069 5 8.60958 5 8.60847 5C8.60735 5 8.60624 5 8.60513 5C8.60401 5 8.6029 5 8.60179 5C8.60068 5 8.59957 5 8.59846 5C8.59735 5 8.59624 5 8.59513 5C8.59402 5 8.59291 5 8.5918 5C8.59069 5 8.58958 5 8.58848 5C8.58737 5 8.58626 5 8.58515 5C8.58405 5 8.58294 5 8.58183 5C8.58073 5 8.57962 5 8.57852 5C8.57741 5 8.57631 5 8.5752 5C8.5741 5 8.573 5 8.5719 5C8.57079 5 8.56969 5 8.56859 5C8.56749 5 8.56639 5 8.56529 5C8.56418 5 8.56308 5 8.56199 5C8.56089 5 8.55979 5 8.55869 5C8.55759 5 8.55649 5 8.5554 5C8.5543 5 8.5532 5 8.55211 5C8.55101 5 8.54991 5 8.54882 5C8.54773 5 8.54663 5 8.54554 5C8.54444 5 8.54335 5 8.54226 5C8.54117 5 8.54007 5 8.53898 5C8.53789 5 8.5368 5 8.53571 5C8.53462 5 8.53353 5 8.53244 5C8.53136 5 8.53027 5 8.52918 5C8.52809 5 8.52701 5 8.52592 5C8.52484 5 8.52375 5 8.52267 5C8.52158 5 8.5205 5 8.51942 5C8.51833 5 8.51725 5 8.51617 5C8.51509 5 8.51401 5 8.51293 5C8.51185 5 8.51077 5 8.50969 5C8.50861 5 8.50753 5 8.50645 5C8.50538 5 8.5043 5 8.50322 5C8.50215 5 8.50107 5 8.5 5C8.49893 5 8.49785 5 8.49678 5C8.49571 5 8.49464 5 8.49356 5C8.49249 5 8.49142 5 8.49035 5C8.48928 5 8.48821 5 8.48715 5C8.48608 5 8.48501 5 8.48395 5C8.48288 5 8.48181 5 8.48075 5C8.47968 5 8.47862 5 8.47756 5C8.47649 5 8.47543 5 8.47437 5C8.47331 5 8.47225 5 8.47119 5C8.47013 5 8.46907 5 8.46801 5C8.46695 5 8.4659 5 8.46484 5C8.46379 5 8.46273 5 8.46168 5C8.46062 5 8.45957 5 8.45852 5C8.45746 5 8.45641 5 8.45536 5C8.45431 5 8.45326 5 8.45221 5C8.45116 5 8.45011 5 8.44907 5C8.44802 5 8.44697 5 8.44593 5C8.44488 5 8.44384 5 8.44279 5C8.44175 5 8.44071 5 8.43967 5C8.43863 5 8.43759 5 8.43655 5C8.43551 5 8.43447 5 8.43343 5C8.43239 5 8.43136 5 8.43032 5C8.42929 5 8.42825 5 8.42722 5C8.42618 5 8.42515 5 8.42412 5C8.42309 5 8.42206 5 8.42103 5C8.42 5 8.41897 5 8.41794 5C8.41691 5 8.41589 5 8.41486 5C8.41384 5 8.41281 5 8.41179 5C8.41077 5 8.40974 5 8.40872 5C8.4077 5 8.40668 5 8.40566 5C8.40464 5 8.40363 5 8.40261 5C8.40159 5 8.40058 5 8.39956 5C8.39855 5 8.39753 5 8.39652 5C8.39551 5 8.3945 5 8.39349 5C8.39248 5 8.39147 5 8.39046 5C8.38945 5 8.38844 5 8.38744 5C8.38643 5 8.38543 5 8.38442 5C8.38342 5 8.38242 5 8.38142 5C8.38042 5 8.37942 5 8.37842 5C8.37742 5 8.37642 5 8.37542 5C8.37443 5 8.37343 5 8.37244 5C8.37144 5 8.37045 5 8.36946 5C8.36847 5 8.36748 5 8.36649 5C8.3655 5 8.36451 5 8.36352 5C8.36254 5 8.36155 5 8.36057 5C8.35958 5 8.3586 5 8.35762 5C8.35663 5 8.35565 5 8.35467 5C8.35369 5 8.35272 5 8.35174 5C8.35076 5 8.34979 5 8.34881 5C8.34784 5 8.34687 5 8.34589 5C8.34492 5 8.34395 5 8.34298 5C8.34201 5 8.34104 5 8.34008 5C8.33911 5 8.33815 5 8.33718 5C8.33622 5 8.33525 5 8.33429 5C8.33333 5 8.33237 5 8.33141 5C8.33045 5 8.3295 5 8.32854 5C8.32758 5 8.32663 5 8.32568 5C8.32472 5 8.32377 5 8.32282 5C8.32187 5 8.32092 5 8.31997 5C8.31903 5 8.31808 5 8.31713 5C8.31619 5 8.31524 5 8.3143 5C8.31336 5 8.31242 5 8.31148 5C8.31054 5 8.3096 5 8.30867 5C8.30773 5 8.30679 5 8.30586 5C8.30493 5 8.30399 5 8.30306 5C8.30213 5 8.3012 5 8.30027 5C8.29935 5 8.29842 5 8.29749 5C8.29657 5 8.29564 5 8.29472 5C8.2938 5 8.29288 5 8.29196 5C8.29104 5 8.29012 5 8.28921 5C8.28829 5 8.28738 5 8.28646 5C8.28555 5 8.28464 5 8.28373 5C8.28282 5 8.28191 5 8.281 5C8.28009 5 8.27919 5 8.27828 5C8.27738 5 8.27648 5 8.27558 5C8.27467 5 8.27378 5 8.27288 5C8.27198 5 8.27108 5 8.27019 5C8.26929 5 8.2684 5 8.26751 5C8.26662 5 8.26573 5 8.26484 5C8.26395 5 8.26306 5 8.26218 5C8.26129 5 8.26041 5 8.25953 5C8.25864 5 8.25776 5 8.25688 5C8.256 5 8.25513 5 8.25425 5C8.25338 5 8.2525 5 8.25163 5C8.25076 5 8.24989 5 8.24902 5C8.24815 5 8.24728 5 8.24641 5C8.24555 5 8.24468 5 8.24382 5C8.24296 5 8.2421 5 8.24124 5C8.24038 5 8.23952 5 8.23867 5C8.23781 5 8.23696 5 8.2361 5C8.23525 5 8.2344 5 8.23355 5C8.2327 5 8.23186 5 8.23101 5C8.23017 5 8.22932 5 8.22848 5C8.22764 5 8.2268 5 8.22596 5C8.22512 5 8.22428 5 8.22345 5C8.22261 5 8.22178 5 8.22095 5C8.22012 5 8.21929 5 8.21846 5C8.21763 5 8.2168 5 8.21598 5C8.21515 5 8.21433 5 8.21351 5C8.21269 5 8.21187 5 8.21105 5C8.21024 5 8.20942 5 8.20861 5C8.20779 5 8.20698 5 8.20617 5C8.20536 5 8.20455 5 8.20375 5C8.20294 5 8.20214 5 8.20133 5C8.20053 5 8.19973 5 8.19893 5C8.19813 5 8.19733 5 8.19654 5C8.19574 5 8.19495 5 8.19416 5C8.19337 5 8.19258 5 8.19179 5C8.191 5 8.19022 5 8.18943 5C8.18865 5 8.18787 5 8.18709 5C8.18631 5 8.18553 5 8.18475 5C8.18397 5 8.1832 5 8.18243 5C8.18166 5 8.18088 5 8.18012 5C8.17935 5 8.17858 5 8.17782 5C8.17705 5 8.17629 5 8.17553 5C8.17477 5 8.17401 5 8.17325 5C8.17249 5 8.17174 5 8.17099 5C8.17023 5 8.16948 5 8.16873 5C8.16799 5 8.16724 5 8.16649 5C8.16575 5 8.16501 5 8.16426 5C8.16352 5 8.16279 5 8.16205 5C8.16131 5 8.16058 5 8.15984 5C8.15911 5 8.15838 5 8.15765 5C8.15692 5 8.1562 5 8.15547 5C8.15475 5 8.15402 5 8.1533 5C8.15258 5 8.15186 5 8.15115 5C8.15043 5 8.14972 5 8.14901 5C8.14829 5 8.14758 5 8.14687 5C8.14617 5 8.14546 5 8.14476 5C8.14405 5 8.14335 5 8.14265 5C8.14195 5 8.14126 5 8.14056 5C8.13986 5 8.13917 5 8.13848 5C8.13779 5 8.1371 5 8.13641 5C8.13573 5 8.13504 5 8.13436 5C8.13368 5 8.133 5 8.13232 5C8.13164 5 8.13096 5 8.13029 5C8.12962 5 8.12895 5 8.12828 5C8.12761 5 8.12694 5 8.12627 5C8.12561 5 8.12495 5 8.12429 5C8.12363 5 8.12297 5 8.12231 5C8.12165 5 8.121 5 8.12035 5C8.1197 5 8.11905 5 8.1184 5C8.11775 5 8.11711 5 8.11647 5C8.11582 5 8.11518 5 8.11454 5C8.11391 5 8.11327 5 8.11264 5C8.112 5 8.11137 5 8.11074 5C8.11011 5 8.10949 5 8.10886 5C8.10824 5 8.10762 5 8.107 5C8.10638 5 8.10576 5 8.10514 5C8.10453 5 8.10391 5 8.1033 5C8.10269 5 8.10209 5 8.10148 5C8.10087 5 8.10027 5 8.09967 5C8.09907 5 8.09847 5 8.09787 5C8.09727 5 8.09668 5 8.09609 5C8.0955 5 8.09491 5 8.09432 5C8.09373 5 8.09315 5 8.09257 5C8.09198 5 8.0914 5 8.09083 5C8.09025 5 8.08967 5 8.0891 5C8.08853 5 8.08796 5 8.08739 5C8.08682 5 8.08626 5 8.08569 5C8.08513 5 8.08457 5 8.08401 5C8.08345 5 8.0829 5 8.08234 5C8.08179 5 8.08124 5 8.08069 5C8.08014 5 8.0796 5 8.07905 5C8.07851 5 8.07797 5 8.07743 5C8.07689 5 8.07636 5 8.07582 5C8.07529 5 8.07476 5 8.07423 5C8.0737 5 8.07318 5 8.07265 5C8.07213 5 8.07161 5 8.07109 5C8.07057 5 8.07006 5 8.06954 5C8.06903 5 8.06852 5 8.06801 5C8.0675 5 8.067 5 8.06649 5C8.06599 5 8.06549 5 8.06499 5C8.06449 5 8.064 5 8.0635 5C8.06301 5 8.06252 5 8.06203 5C8.06154 5 8.06106 5 8.06058 5C8.06009 5 8.05961 5 8.05914 5C8.05866 5 8.05819 5 8.05771 5C8.05724 5 8.05677 5 8.0563 5C8.05584 5 8.05537 5 8.05491 5C8.05445 5 8.05399 5 8.05354 5C8.05308 5 8.05263 5 8.05217 5C8.05172 5 8.05127 5 8.05083 5C8.05038 5 8.04994 5 8.0495 5C8.04906 5 8.04862 5 8.04819 5C8.04775 5 8.04732 5 8.04689 5C8.04646 5 8.04603 5 8.04561 5C8.04519 5 8.04476 5 8.04435 5C8.04393 5 8.04351 5 8.0431 5C8.04269 5 8.04227 5 8.04187 5C8.04146 5 8.04105 5 8.04065 5C8.04025 5 8.03985 5 8.03945 5C8.03906 5 8.03866 5 8.03827 5C8.03788 5 8.03749 5 8.03711 5C8.03672 5 8.03634 5 8.03596 5C8.03558 5 8.0352 5 8.03483 5C8.03445 5 8.03408 5 8.03371 5C8.03334 5 8.03298 5 8.03261 5C8.03225 5 8.03189 5 8.03153 5C8.03117 5 8.03082 5 8.03047 5C8.03012 5 8.02977 5 8.02942 5C8.02908 5 8.02873 5 8.02839 5C8.02805 5 8.02771 5 8.02738 5C8.02704 5 8.02671 5 8.02638 5C8.02605 5 8.02573 5 8.02541 5C8.02508 5 8.02476 5 8.02445 5C8.02413 5 8.02381 5 8.0235 5C8.02319 5 8.02288 5 8.02258 5C8.02227 5 8.02197 5 8.02167 5C8.02137 5 8.02107 5 8.02078 5C8.02048 5 8.02019 5 8.01991 5C8.01962 5 8.01933 5 8.01905 5C8.01877 5 8.01849 5 8.01821 5C8.01794 5 8.01767 5 8.0174 5C8.01713 5 8.01686 5 8.01659 5C8.01633 5 8.01607 5 8.01581 5C8.01555 5 8.0153 5 8.01505 5C8.0148 5 8.01455 5 8.0143 5C8.01405 5 8.01381 5 8.01357 5C8.01333 5 8.0131 5 8.01286 5C8.01263 5 8.0124 5 8.01217 5C8.01194 5 8.01172 5 8.0115 5C8.01128 5 8.01106 5 8.01084 5C8.01063 5 8.01041 5 8.01021 5C8.01 5 8.00979 5 8.00959 5C8.00938 5 8.00918 5 8.00899 5C8.00879 5 8.0086 5 8.00841 5C8.00822 5 8.00803 5 8.00785 5C8.00766 5 8.00748 5 8.0073 5C8.00713 5 8.00695 5 8.00678 5C8.00661 5 8.00644 5 8.00627 5C8.00611 5 8.00595 5 8.00579 5C8.00563 5 8.00547 5 8.00532 5C8.00517 5 8.00502 5 8.00487 5C8.00473 5 8.00459 5 8.00445 5C8.00431 5 8.00417 5 8.00404 5C8.0039 5 8.00377 5 8.00365 5C8.00352 5 8.0034 5 8.00328 5C8.00316 5 8.00304 5 8.00293 5C8.00281 5 8.0027 5 8.00259 5C8.00249 5 8.00238 5 8.00228 5C8.00218 5 8.00208 5 8.00199 5C8.0019 5 8.00181 5 8.00172 5C8.00163 5 8.00155 5 8.00147 5C8.00138 5 8.00131 5 8.00123 5C8.00116 5 8.00109 5 8.00102 5C8.00095 5 8.00089 5 8.00083 5C8.00077 5 8.00071 5 8.00065 5C8.0006 5 8.00055 5 8.0005 5C8.00045 5 8.00041 5 8.00037 5C8.00033 5 8.00029 5 8.00026 5C8.00022 5 8.00019 5 8.00016 5C8.00014 5 8.00011 5 8.00009 5C8.00007 5 8.00005 5 8.00004 5C8.00003 5 8.00002 5 8.00001 5C8 5 8 5 8 6C8 7 8 7 8.00001 7C8.00002 7 8.00003 7 8.00004 7C8.00005 7 8.00007 7 8.00009 7C8.00011 7 8.00014 7 8.00016 7C8.00019 7 8.00022 7 8.00026 7C8.00029 7 8.00033 7 8.00037 7C8.00041 7 8.00045 7 8.0005 7C8.00055 7 8.0006 7 8.00065 7C8.00071 7 8.00077 7 8.00083 7C8.00089 7 8.00095 7 8.00102 7C8.00109 7 8.00116 7 8.00123 7C8.00131 7 8.00138 7 8.00147 7C8.00155 7 8.00163 7 8.00172 7C8.00181 7 8.0019 7 8.00199 7C8.00208 7 8.00218 7 8.00228 7C8.00238 7 8.00249 7 8.00259 7C8.0027 7 8.00281 7 8.00293 7C8.00304 7 8.00316 7 8.00328 7C8.0034 7 8.00352 7 8.00365 7C8.00377 7 8.0039 7 8.00404 7C8.00417 7 8.00431 7 8.00445 7C8.00459 7 8.00473 7 8.00487 7C8.00502 7 8.00517 7 8.00532 7C8.00547 7 8.00563 7 8.00579 7C8.00595 7 8.00611 7 8.00627 7C8.00644 7 8.00661 7 8.00678 7C8.00695 7 8.00713 7 8.0073 7C8.00748 7 8.00766 7 8.00785 7C8.00803 7 8.00822 7 8.00841 7C8.0086 7 8.00879 7 8.00899 7C8.00918 7 8.00938 7 8.00959 7C8.00979 7 8.01 7 8.01021 7C8.01041 7 8.01063 7 8.01084 7C8.01106 7 8.01128 7 8.0115 7C8.01172 7 8.01194 7 8.01217 7C8.0124 7 8.01263 7 8.01286 7C8.0131 7 8.01333 7 8.01357 7C8.01381 7 8.01405 7 8.0143 7C8.01455 7 8.0148 7 8.01505 7C8.0153 7 8.01555 7 8.01581 7C8.01607 7 8.01633 7 8.01659 7C8.01686 7 8.01713 7 8.0174 7C8.01767 7 8.01794 7 8.01821 7C8.01849 7 8.01877 7 8.01905 7C8.01933 7 8.01962 7 8.01991 7C8.02019 7 8.02048 7 8.02078 7C8.02107 7 8.02137 7 8.02167 7C8.02197 7 8.02227 7 8.02258 7C8.02288 7 8.02319 7 8.0235 7C8.02381 7 8.02413 7 8.02445 7C8.02476 7 8.02508 7 8.02541 7C8.02573 7 8.02605 7 8.02638 7C8.02671 7 8.02704 7 8.02738 7C8.02771 7 8.02805 7 8.02839 7C8.02873 7 8.02908 7 8.02942 7C8.02977 7 8.03012 7 8.03047 7C8.03082 7 8.03117 7 8.03153 7C8.03189 7 8.03225 7 8.03261 7C8.03298 7 8.03334 7 8.03371 7C8.03408 7 8.03445 7 8.03483 7C8.0352 7 8.03558 7 8.03596 7C8.03634 7 8.03672 7 8.03711 7C8.03749 7 8.03788 7 8.03827 7C8.03866 7 8.03906 7 8.03945 7C8.03985 7 8.04025 7 8.04065 7C8.04105 7 8.04146 7 8.04187 7C8.04227 7 8.04269 7 8.0431 7C8.04351 7 8.04393 7 8.04435 7C8.04476 7 8.04519 7 8.04561 7C8.04603 7 8.04646 7 8.04689 7C8.04732 7 8.04775 7 8.04819 7C8.04862 7 8.04906 7 8.0495 7C8.04994 7 8.05038 7 8.05083 7C8.05127 7 8.05172 7 8.05217 7C8.05263 7 8.05308 7 8.05354 7C8.05399 7 8.05445 7 8.05491 7C8.05537 7 8.05584 7 8.0563 7C8.05677 7 8.05724 7 8.05771 7C8.05819 7 8.05866 7 8.05914 7C8.05961 7 8.06009 7 8.06058 7C8.06106 7 8.06154 7 8.06203 7C8.06252 7 8.06301 7 8.0635 7C8.064 7 8.06449 7 8.06499 7C8.06549 7 8.06599 7 8.06649 7C8.067 7 8.0675 7 8.06801 7C8.06852 7 8.06903 7 8.06954 7C8.07006 7 8.07057 7 8.07109 7C8.07161 7 8.07213 7 8.07265 7C8.07318 7 8.0737 7 8.07423 7C8.07476 7 8.07529 7 8.07582 7C8.07636 7 8.07689 7 8.07743 7C8.07797 7 8.07851 7 8.07905 7C8.0796 7 8.08014 7 8.08069 7C8.08124 7 8.08179 7 8.08234 7C8.0829 7 8.08345 7 8.08401 7C8.08457 7 8.08513 7 8.08569 7C8.08626 7 8.08682 7 8.08739 7C8.08796 7 8.08853 7 8.0891 7C8.08967 7 8.09025 7 8.09083 7C8.0914 7 8.09198 7 8.09257 7C8.09315 7 8.09373 7 8.09432 7C8.09491 7 8.0955 7 8.09609 7C8.09668 7 8.09727 7 8.09787 7C8.09847 7 8.09907 7 8.09967 7C8.10027 7 8.10087 7 8.10148 7C8.10209 7 8.10269 7 8.1033 7C8.10391 7 8.10453 7 8.10514 7C8.10576 7 8.10638 7 8.107 7C8.10762 7 8.10824 7 8.10886 7C8.10949 7 8.11011 7 8.11074 7C8.11137 7 8.112 7 8.11264 7C8.11327 7 8.11391 7 8.11454 7C8.11518 7 8.11582 7 8.11647 7C8.11711 7 8.11775 7 8.1184 7C8.11905 7 8.1197 7 8.12035 7C8.121 7 8.12165 7 8.12231 7C8.12297 7 8.12363 7 8.12429 7C8.12495 7 8.12561 7 8.12627 7C8.12694 7 8.12761 7 8.12828 7C8.12895 7 8.12962 7 8.13029 7C8.13096 7 8.13164 7 8.13232 7C8.133 7 8.13368 7 8.13436 7C8.13504 7 8.13573 7 8.13641 7C8.1371 7 8.13779 7 8.13848 7C8.13917 7 8.13986 7 8.14056 7C8.14126 7 8.14195 7 8.14265 7C8.14335 7 8.14405 7 8.14476 7C8.14546 7 8.14617 7 8.14687 7C8.14758 7 8.14829 7 8.14901 7C8.14972 7 8.15043 7 8.15115 7C8.15186 7 8.15258 7 8.1533 7C8.15402 7 8.15475 7 8.15547 7C8.1562 7 8.15692 7 8.15765 7C8.15838 7 8.15911 7 8.15984 7C8.16058 7 8.16131 7 8.16205 7C8.16279 7 8.16352 7 8.16426 7C8.16501 7 8.16575 7 8.16649 7C8.16724 7 8.16799 7 8.16873 7C8.16948 7 8.17023 7 8.17099 7C8.17174 7 8.17249 7 8.17325 7C8.17401 7 8.17477 7 8.17553 7C8.17629 7 8.17705 7 8.17782 7C8.17858 7 8.17935 7 8.18012 7C8.18088 7 8.18166 7 8.18243 7C8.1832 7 8.18397 7 8.18475 7C8.18553 7 8.18631 7 8.18709 7C8.18787 7 8.18865 7 8.18943 7C8.19022 7 8.191 7 8.19179 7C8.19258 7 8.19337 7 8.19416 7C8.19495 7 8.19574 7 8.19654 7C8.19733 7 8.19813 7 8.19893 7C8.19973 7 8.20053 7 8.20133 7C8.20214 7 8.20294 7 8.20375 7C8.20455 7 8.20536 7 8.20617 7C8.20698 7 8.20779 7 8.20861 7C8.20942 7 8.21024 7 8.21105 7C8.21187 7 8.21269 7 8.21351 7C8.21433 7 8.21515 7 8.21598 7C8.2168 7 8.21763 7 8.21846 7C8.21929 7 8.22012 7 8.22095 7C8.22178 7 8.22261 7 8.22345 7C8.22428 7 8.22512 7 8.22596 7C8.2268 7 8.22764 7 8.22848 7C8.22932 7 8.23017 7 8.23101 7C8.23186 7 8.2327 7 8.23355 7C8.2344 7 8.23525 7 8.2361 7C8.23696 7 8.23781 7 8.23867 7C8.23952 7 8.24038 7 8.24124 7C8.2421 7 8.24296 7 8.24382 7C8.24468 7 8.24555 7 8.24641 7C8.24728 7 8.24815 7 8.24902 7C8.24989 7 8.25076 7 8.25163 7C8.2525 7 8.25338 7 8.25425 7C8.25513 7 8.256 7 8.25688 7C8.25776 7 8.25864 7 8.25953 7C8.26041 7 8.26129 7 8.26218 7C8.26306 7 8.26395 7 8.26484 7C8.26573 7 8.26662 7 8.26751 7C8.2684 7 8.26929 7 8.27019 7C8.27108 7 8.27198 7 8.27288 7C8.27378 7 8.27467 7 8.27558 7C8.27648 7 8.27738 7 8.27828 7C8.27919 7 8.28009 7 8.281 7C8.28191 7 8.28282 7 8.28373 7C8.28464 7 8.28555 7 8.28646 7C8.28738 7 8.28829 7 8.28921 7C8.29012 7 8.29104 7 8.29196 7C8.29288 7 8.2938 7 8.29472 7C8.29564 7 8.29657 7 8.29749 7C8.29842 7 8.29935 7 8.30027 7C8.3012 7 8.30213 7 8.30306 7C8.30399 7 8.30493 7 8.30586 7C8.30679 7 8.30773 7 8.30867 7C8.3096 7 8.31054 7 8.31148 7C8.31242 7 8.31336 7 8.3143 7C8.31524 7 8.31619 7 8.31713 7C8.31808 7 8.31903 7 8.31997 7C8.32092 7 8.32187 7 8.32282 7C8.32377 7 8.32472 7 8.32568 7C8.32663 7 8.32758 7 8.32854 7C8.3295 7 8.33045 7 8.33141 7C8.33237 7 8.33333 7 8.33429 7C8.33525 7 8.33622 7 8.33718 7C8.33815 7 8.33911 7 8.34008 7C8.34104 7 8.34201 7 8.34298 7C8.34395 7 8.34492 7 8.34589 7C8.34687 7 8.34784 7 8.34881 7C8.34979 7 8.35076 7 8.35174 7C8.35272 7 8.35369 7 8.35467 7C8.35565 7 8.35663 7 8.35762 7C8.3586 7 8.35958 7 8.36057 7C8.36155 7 8.36254 7 8.36352 7C8.36451 7 8.3655 7 8.36649 7C8.36748 7 8.36847 7 8.36946 7C8.37045 7 8.37144 7 8.37244 7C8.37343 7 8.37443 7 8.37542 7C8.37642 7 8.37742 7 8.37842 7C8.37942 7 8.38042 7 8.38142 7C8.38242 7 8.38342 7 8.38442 7C8.38543 7 8.38643 7 8.38744 7C8.38844 7 8.38945 7 8.39046 7C8.39147 7 8.39248 7 8.39349 7C8.3945 7 8.39551 7 8.39652 7C8.39753 7 8.39855 7 8.39956 7C8.40058 7 8.40159 7 8.40261 7C8.40363 7 8.40464 7 8.40566 7C8.40668 7 8.4077 7 8.40872 7C8.40974 7 8.41077 7 8.41179 7C8.41281 7 8.41384 7 8.41486 7C8.41589 7 8.41691 7 8.41794 7C8.41897 7 8.42 7 8.42103 7C8.42206 7 8.42309 7 8.42412 7C8.42515 7 8.42618 7 8.42722 7C8.42825 7 8.42929 7 8.43032 7C8.43136 7 8.43239 7 8.43343 7C8.43447 7 8.43551 7 8.43655 7C8.43759 7 8.43863 7 8.43967 7C8.44071 7 8.44175 7 8.44279 7C8.44384 7 8.44488 7 8.44593 7C8.44697 7 8.44802 7 8.44907 7C8.45011 7 8.45116 7 8.45221 7C8.45326 7 8.45431 7 8.45536 7C8.45641 7 8.45746 7 8.45852 7C8.45957 7 8.46062 7 8.46168 7C8.46273 7 8.46379 7 8.46484 7C8.4659 7 8.46695 7 8.46801 7C8.46907 7 8.47013 7 8.47119 7C8.47225 7 8.47331 7 8.47437 7C8.47543 7 8.47649 7 8.47756 7C8.47862 7 8.47968 7 8.48075 7C8.48181 7 8.48288 7 8.48395 7C8.48501 7 8.48608 7 8.48715 7C8.48821 7 8.48928 7 8.49035 7C8.49142 7 8.49249 7 8.49356 7C8.49464 7 8.49571 7 8.49678 7C8.49785 7 8.49893 7 8.5 7C8.50107 7 8.50215 7 8.50322 7C8.5043 7 8.50538 7 8.50645 7C8.50753 7 8.50861 7 8.50969 7C8.51077 7 8.51185 7 8.51293 7C8.51401 7 8.51509 7 8.51617 7C8.51725 7 8.51833 7 8.51942 7C8.5205 7 8.52158 7 8.52267 7C8.52375 7 8.52484 7 8.52592 7C8.52701 7 8.52809 7 8.52918 7C8.53027 7 8.53136 7 8.53244 7C8.53353 7 8.53462 7 8.53571 7C8.5368 7 8.53789 7 8.53898 7C8.54007 7 8.54117 7 8.54226 7C8.54335 7 8.54444 7 8.54554 7C8.54663 7 8.54773 7 8.54882 7C8.54991 7 8.55101 7 8.55211 7C8.5532 7 8.5543 7 8.5554 7C8.55649 7 8.55759 7 8.55869 7C8.55979 7 8.56089 7 8.56199 7C8.56308 7 8.56418 7 8.56529 7C8.56639 7 8.56749 7 8.56859 7C8.56969 7 8.57079 7 8.5719 7C8.573 7 8.5741 7 8.5752 7C8.57631 7 8.57741 7 8.57852 7C8.57962 7 8.58073 7 8.58183 7C8.58294 7 8.58405 7 8.58515 7C8.58626 7 8.58737 7 8.58848 7C8.58958 7 8.59069 7 8.5918 7C8.59291 7 8.59402 7 8.59513 7C8.59624 7 8.59735 7 8.59846 7C8.59957 7 8.60068 7 8.60179 7C8.6029 7 8.60401 7 8.60513 7C8.60624 7 8.60735 7 8.60847 7C8.60958 7 8.61069 7 8.61181 7C8.61292 7 8.61403 7 8.61515 7C8.61626 7 8.61738 7 8.6185 7C8.61961 7 8.62073 7 8.62184 7C8.62296 7 8.62408 7 8.62519 7C8.62631 7 8.62743 7 8.62855 7C8.62966 7 8.63078 7 8.6319 7C8.63302 7 8.63414 7 8.63526 7C8.63638 7 8.6375 7 8.63862 7C8.63974 7 8.64086 7 8.64198 7C8.6431 7 8.64422 7 8.64534 7C8.64646 7 8.64758 7 8.6487 7C8.64983 7 8.65095 7 8.65207 7C8.65319 7 8.65431 7 8.65544 7C8.65656 7 8.65768 7 8.65881 7C8.65993 7 8.66105 7 8.66218 7C8.6633 7 8.66443 7 8.66555 7C8.66668 7 8.6678 7 8.66893 7C8.67005 7 8.67118 7 8.6723 7C8.67343 7 8.67455 7 8.67568 7C8.6768 7 8.67793 7 8.67906 7C8.68018 7 8.68131 7 8.68243 7C8.68356 7 8.68469 7 8.68581 7C8.68694 7 8.68807 7 8.6892 7C8.69032 7 8.69145 7 8.69258 7C8.69371 7 8.69483 7 8.69596 7C8.69709 7 8.69822 7 8.69935 7C8.70047 7 8.7016 7 8.70273 7C8.70386 7 8.70499 7 8.70612 7C8.70725 7 8.70837 7 8.7095 7C8.71063 7 8.71176 7 8.71289 7C8.71402 7 8.71515 7 8.71628 7C8.71741 7 8.71854 7 8.71967 7C8.7208 7 8.72193 7 8.72306 7C8.72418 7 8.72531 7 8.72644 7C8.72757 7 8.7287 7 8.72983 7C8.73096 7 8.73209 7 8.73322 7C8.73435 7 8.73548 7 8.73661 7C8.73774 7 8.73887 7 8.74 7C8.74113 7 8.74226 7 8.74339 7C8.74452 7 8.74565 7 8.74678 7C8.74791 7 8.74904 7 8.75017 7C8.7513 7 8.75243 7 8.75356 7C8.75469 7 8.75582 7 8.75695 7C8.75808 7 8.75921 7 8.76034 7C8.76147 7 8.7626 7 8.76373 7C8.76486 7 8.76599 7 8.76712 7C8.76825 7 8.76938 7 8.77051 7C8.77164 7 8.77277 7 8.7739 7C8.77503 7 8.77615 7 8.77728 7C8.77841 7 8.77954 7 8.78067 7C8.7818 7 8.78293 7 8.78406 7C8.78519 7 8.78631 7 8.78744 7C8.78857 7 8.7897 7 8.79083 7C8.79195 7 8.79308 7 8.79421 7C8.79534 7 8.79647 7 8.79759 7C8.79872 7 8.79985 7 8.80097 7C8.8021 7 8.80323 7 8.80436 7C8.80548 7 8.80661 7 8.80773 7C8.80886 7 8.80999 7 8.81111 7C8.81224 7 8.81336 7 8.81449 7C8.81562 7 8.81674 7 8.81787 7C8.81899 7 8.82012 7 8.82124 7C8.82236 7 8.82349 7 8.82461 7C8.82574 7 8.82686 7 8.82798 7C8.82911 7 8.83023 7 8.83135 7C8.83248 7 8.8336 7 8.83472 7C8.83585 7 8.83697 7 8.83809 7C8.83921 7 8.84033 7 8.84145 7C8.84258 7 8.8437 7 8.84482 7C8.84594 7 8.84706 7 8.84818 7C8.8493 7 8.85042 7 8.85154 7C8.85266 7 8.85378 7 8.8549 7C8.85601 7 8.85713 7 8.85825 7C8.85937 7 8.86049 7 8.8616 7C8.86272 7 8.86384 7 8.86495 7C8.86607 7 8.86719 7 8.8683 7C8.86942 7 8.87053 7 8.87165 7C8.87277 7 8.87388 7 8.87499 7C8.87611 7 8.87722 7 8.87834 7C8.87945 7 8.88056 7 8.88167 7C8.88279 7 8.8839 7 8.88501 7C8.88612 7 8.88723 7 8.88835 7C8.88946 7 8.89057 7 8.89168 7C8.89279 7 8.8939 7 8.895 7C8.89611 7 8.89722 7 8.89833 7C8.89944 7 8.90055 7 8.90165 7C8.90276 7 8.90387 7 8.90497 7C8.90608 7 8.90719 7 8.90829 7C8.9094 7 8.9105 7 8.9116 7C8.91271 7 8.91381 7 8.91491 7C8.91602 7 8.91712 7 8.91822 7C8.91932 7 8.92043 7 8.92153 7C8.92263 7 8.92373 7 8.92483 7C8.92593 7 8.92703 7 8.92813 7C8.92922 7 8.93032 7 8.93142 7C8.93252 7 8.93361 7 8.93471 7C8.93581 7 8.9369 7 8.938 7C8.93909 7 8.94019 7 8.94128 7C8.94237 7 8.94347 7 8.94456 7C8.94565 7 8.94674 7 8.94784 7C8.94893 7 8.95002 7 8.95111 7C8.9522 7 8.95329 7 8.95438 7C8.95547 7 8.95655 7 8.95764 7C8.95873 7 8.95982 7 8.9609 7C8.96199 7 8.96307 7 8.96416 7C8.96524 7 8.96633 7 8.96741 7C8.96849 7 8.96958 7 8.97066 7C8.97174 7 8.97282 7 8.9739 7C8.97498 7 8.97606 7 8.97714 7C8.97822 7 8.9793 7 8.98038 7C8.98145 7 8.98253 7 8.98361 7C8.98468 7 8.98576 7 8.98683 7C8.98791 7 8.98898 7 8.99006 7C8.99113 7 8.9922 7 8.99327 7C8.99434 7 8.99542 7 8.99649 7C8.99756 7 8.99862 7 8.99969 7C9.00076 7 9.00183 7 9.0029 7C9.00396 7 9.00503 7 9.00609 7C9.00716 7 9.00822 7 9.00929 7C9.01035 7 9.01141 7 9.01248 7C9.01354 7 9.0146 7 9.01566 7C9.01672 7 9.01778 7 9.01884 7C9.01989 7 9.02095 7 9.02201 7C9.02306 7 9.02412 7 9.02518 7C9.02623 7 9.02728 7 9.02834 7C9.02939 7 9.03044 7 9.03149 7C9.03255 7 9.0336 7 9.03465 7C9.0357 7 9.03674 7 9.03779 7C9.03884 7 9.03989 7 9.04093 7C9.04198 7 9.04302 7 9.04407 7C9.04511 7 9.04615 7 9.0472 7C9.04824 7 9.04928 7 9.05032 7C9.05136 7 9.0524 7 9.05344 7C9.05447 7 9.05551 7 9.05655 7C9.05758 7 9.05862 7 9.05965 7C9.06069 7 9.06172 7 9.06275 7C9.06378 7 9.06482 7 9.06585 7C9.06688 7 9.0679 7 9.06893 7C9.06996 7 9.07099 7 9.07201 7C9.07304 7 9.07407 7 9.07509 7C9.07611 7 9.07714 7 9.07816 7C9.07918 7 9.0802 7 9.08122 7C9.08224 7 9.08326 7 9.08428 7C9.08529 7 9.08631 7 9.08733 7C9.08834 7 9.08935 7 9.09037 7C9.09138 7 9.09239 7 9.0934 7C9.09441 7 9.09542 7 9.09643 7C9.09744 7 9.09845 7 9.09946 7C9.10046 7 9.10147 7 9.10247 7C9.10348 7 9.10448 7 9.10548 7C9.10648 7 9.10748 7 9.10848 7C9.10948 7 9.11048 7 9.11148 7C9.11247 7 9.11347 7 9.11447 7C9.11546 7 9.11645 7 9.11745 7C9.11844 7 9.11943 7 9.12042 7C9.12141 7 9.1224 7 9.12339 7C9.12437 7 9.12536 7 9.12635 7C9.12733 7 9.12831 7 9.1293 7C9.13028 7 9.13126 7 9.13224 7C9.13322 7 9.1342 7 9.13518 7C9.13616 7 9.13713 7 9.13811 7C9.13908 7 9.14006 7 9.14103 7C9.142 7 9.14297 7 9.14394 7C9.14491 7 9.14588 7 9.14685 7C9.14782 7 9.14878 7 9.14975 7C9.15071 7 9.15168 7 9.15264 7C9.1536 7 9.15456 7 9.15552 7C9.15648 7 9.15744 7 9.15839 7C9.15935 7 9.16031 7 9.16126 7C9.16222 7 9.16317 7 9.16412 7C9.16507 7 9.16602 7 9.16697 7C9.16792 7 9.16887 7 9.16981 7C9.17076 7 9.1717 7 9.17264 7C9.17359 7 9.17453 7 9.17547 7C9.17641 7 9.17735 7 9.17829 7C9.17922 7 9.18016 7 9.1811 7C9.18203 7 9.18296 7 9.1839 7C9.18483 7 9.18576 7 9.18669 7C9.18761 7 9.18854 7 9.18947 7C9.19039 7 9.19132 7 9.19224 7C9.19316 7 9.19409 7 9.19501 7C9.19593 7 9.19685 7 9.19776 7C9.19868 7 9.1996 7 9.20051 7C9.20142 7 9.20234 7 9.20325 7C9.20416 7 9.20507 7 9.20598 7C9.20688 7 9.20779 7 9.2087 7C9.2096 7 9.2105 7 9.21141 7C9.21231 7 9.21321 7 9.21411 7C9.21501 7 9.2159 7 9.2168 7C9.2177 7 9.21859 7 9.21948 7C9.22038 7 9.22127 7 9.22216 7C9.22305 7 9.22393 7 9.22482 7C9.22571 7 9.22659 7 9.22747 7C9.22836 7 9.22924 7 9.23012 7C9.231 7 9.23188 7 9.23275 7C9.23363 7 9.2345 7 9.23538 7C9.23625 7 9.23712 7 9.23799 7C9.23886 7 9.23973 7 9.2406 7C9.24147 7 9.24233 7 9.24319 7C9.24406 7 9.24492 7 9.24578 7C9.24664 7 9.2475 7 9.24835 7C9.24921 7 9.25007 7 9.25092 7C9.25177 7 9.25262 7 9.25348 7C9.25432 7 9.25517 7 9.25602 7C9.25687 7 9.25771 7 9.25855 7C9.2594 7 9.26024 7 9.26108 7C9.26192 7 9.26276 7 9.26359 7C9.26443 7 9.26526 7 9.2661 7C9.26693 7 9.26776 7 9.26859 7C9.26942 7 9.27024 7 9.27107 7C9.27189 7 9.27272 7 9.27354 7C9.27436 7 9.27518 7 9.276 7C9.27682 7 9.27764 7 9.27845 7C9.27927 7 9.28008 7 9.28089 7C9.2817 7 9.28251 7 9.28332 7C9.28412 7 9.28493 7 9.28573 7C9.28654 7 9.28734 7 9.28814 7C9.28894 7 9.28974 7 9.29053 7C9.29133 7 9.29212 7 9.29292 7C9.29371 7 9.2945 7 9.29529 7C9.29608 7 9.29687 7 9.29765 7C9.29844 7 9.29922 7 9.3 7V5ZM7 6V21H9V6H7ZM8 21C8 22 8 22 8.00001 22C8.00002 22 8.00003 22 8.00004 22C8.00005 22 8.00007 22 8.00009 22C8.00011 22 8.00014 22 8.00016 22C8.00019 22 8.00022 22 8.00026 22C8.00029 22 8.00033 22 8.00037 22C8.00041 22 8.00045 22 8.0005 22C8.00055 22 8.0006 22 8.00065 22C8.00071 22 8.00077 22 8.00083 22C8.00089 22 8.00095 22 8.00102 22C8.00109 22 8.00116 22 8.00123 22C8.00131 22 8.00138 22 8.00147 22C8.00155 22 8.00163 22 8.00172 22C8.00181 22 8.0019 22 8.00199 22C8.00208 22 8.00218 22 8.00228 22C8.00238 22 8.00249 22 8.00259 22C8.0027 22 8.00281 22 8.00293 22C8.00304 22 8.00316 22 8.00328 22C8.0034 22 8.00352 22 8.00365 22C8.00377 22 8.0039 22 8.00404 22C8.00417 22 8.00431 22 8.00445 22C8.00459 22 8.00473 22 8.00487 22C8.00502 22 8.00517 22 8.00532 22C8.00547 22 8.00563 22 8.00579 22C8.00595 22 8.00611 22 8.00627 22C8.00644 22 8.00661 22 8.00678 22C8.00695 22 8.00713 22 8.0073 22C8.00748 22 8.00766 22 8.00785 22C8.00803 22 8.00822 22 8.00841 22C8.0086 22 8.00879 22 8.00899 22C8.00918 22 8.00938 22 8.00959 22C8.00979 22 8.01 22 8.01021 22C8.01041 22 8.01063 22 8.01084 22C8.01106 22 8.01128 22 8.0115 22C8.01172 22 8.01194 22 8.01217 22C8.0124 22 8.01263 22 8.01286 22C8.0131 22 8.01333 22 8.01357 22C8.01381 22 8.01405 22 8.0143 22C8.01455 22 8.0148 22 8.01505 22C8.0153 22 8.01555 22 8.01581 22C8.01607 22 8.01633 22 8.01659 22C8.01686 22 8.01713 22 8.0174 22C8.01767 22 8.01794 22 8.01821 22C8.01849 22 8.01877 22 8.01905 22C8.01933 22 8.01962 22 8.01991 22C8.02019 22 8.02048 22 8.02078 22C8.02107 22 8.02137 22 8.02167 22C8.02197 22 8.02227 22 8.02258 22C8.02288 22 8.02319 22 8.0235 22C8.02381 22 8.02413 22 8.02445 22C8.02476 22 8.02508 22 8.02541 22C8.02573 22 8.02605 22 8.02638 22C8.02671 22 8.02704 22 8.02738 22C8.02771 22 8.02805 22 8.02839 22C8.02873 22 8.02908 22 8.02942 22C8.02977 22 8.03012 22 8.03047 22C8.03082 22 8.03117 22 8.03153 22C8.03189 22 8.03225 22 8.03261 22C8.03298 22 8.03334 22 8.03371 22C8.03408 22 8.03445 22 8.03483 22C8.0352 22 8.03558 22 8.03596 22C8.03634 22 8.03672 22 8.03711 22C8.03749 22 8.03788 22 8.03827 22C8.03866 22 8.03906 22 8.03945 22C8.03985 22 8.04025 22 8.04065 22C8.04105 22 8.04146 22 8.04187 22C8.04227 22 8.04269 22 8.0431 22C8.04351 22 8.04393 22 8.04435 22C8.04476 22 8.04519 22 8.04561 22C8.04603 22 8.04646 22 8.04689 22C8.04732 22 8.04775 22 8.04819 22C8.04862 22 8.04906 22 8.0495 22C8.04994 22 8.05038 22 8.05083 22C8.05127 22 8.05172 22 8.05217 22C8.05263 22 8.05308 22 8.05354 22C8.05399 22 8.05445 22 8.05491 22C8.05537 22 8.05584 22 8.0563 22C8.05677 22 8.05724 22 8.05771 22C8.05819 22 8.05866 22 8.05914 22C8.05961 22 8.06009 22 8.06058 22C8.06106 22 8.06154 22 8.06203 22C8.06252 22 8.06301 22 8.0635 22C8.064 22 8.06449 22 8.06499 22C8.06549 22 8.06599 22 8.06649 22C8.067 22 8.0675 22 8.06801 22C8.06852 22 8.06903 22 8.06954 22C8.07006 22 8.07057 22 8.07109 22C8.07161 22 8.07213 22 8.07265 22C8.07318 22 8.0737 22 8.07423 22C8.07476 22 8.07529 22 8.07582 22C8.07636 22 8.07689 22 8.07743 22C8.07797 22 8.07851 22 8.07905 22C8.0796 22 8.08014 22 8.08069 22C8.08124 22 8.08179 22 8.08234 22C8.0829 22 8.08345 22 8.08401 22C8.08457 22 8.08513 22 8.08569 22C8.08626 22 8.08682 22 8.08739 22C8.08796 22 8.08853 22 8.0891 22C8.08967 22 8.09025 22 8.09083 22C8.0914 22 8.09198 22 8.09257 22C8.09315 22 8.09373 22 8.09432 22C8.09491 22 8.0955 22 8.09609 22C8.09668 22 8.09727 22 8.09787 22C8.09847 22 8.09907 22 8.09967 22C8.10027 22 8.10087 22 8.10148 22C8.10209 22 8.10269 22 8.1033 22C8.10391 22 8.10453 22 8.10514 22C8.10576 22 8.10638 22 8.107 22C8.10762 22 8.10824 22 8.10886 22C8.10949 22 8.11011 22 8.11074 22C8.11137 22 8.112 22 8.11264 22C8.11327 22 8.11391 22 8.11454 22C8.11518 22 8.11582 22 8.11647 22C8.11711 22 8.11775 22 8.1184 22C8.11905 22 8.1197 22 8.12035 22C8.121 22 8.12165 22 8.12231 22C8.12297 22 8.12363 22 8.12429 22C8.12495 22 8.12561 22 8.12627 22C8.12694 22 8.12761 22 8.12828 22C8.12895 22 8.12962 22 8.13029 22C8.13096 22 8.13164 22 8.13232 22C8.133 22 8.13368 22 8.13436 22C8.13504 22 8.13573 22 8.13641 22C8.1371 22 8.13779 22 8.13848 22C8.13917 22 8.13986 22 8.14056 22C8.14126 22 8.14195 22 8.14265 22C8.14335 22 8.14405 22 8.14476 22C8.14546 22 8.14617 22 8.14687 22C8.14758 22 8.14829 22 8.14901 22C8.14972 22 8.15043 22 8.15115 22C8.15186 22 8.15258 22 8.1533 22C8.15402 22 8.15475 22 8.15547 22C8.1562 22 8.15692 22 8.15765 22C8.15838 22 8.15911 22 8.15984 22C8.16058 22 8.16131 22 8.16205 22C8.16279 22 8.16352 22 8.16426 22C8.16501 22 8.16575 22 8.16649 22C8.16724 22 8.16799 22 8.16873 22C8.16948 22 8.17023 22 8.17099 22C8.17174 22 8.17249 22 8.17325 22C8.17401 22 8.17477 22 8.17553 22C8.17629 22 8.17705 22 8.17782 22C8.17858 22 8.17935 22 8.18012 22C8.18088 22 8.18166 22 8.18243 22C8.1832 22 8.18397 22 8.18475 22C8.18553 22 8.18631 22 8.18709 22C8.18787 22 8.18865 22 8.18943 22C8.19022 22 8.191 22 8.19179 22C8.19258 22 8.19337 22 8.19416 22C8.19495 22 8.19574 22 8.19654 22C8.19733 22 8.19813 22 8.19893 22C8.19973 22 8.20053 22 8.20133 22C8.20214 22 8.20294 22 8.20375 22C8.20455 22 8.20536 22 8.20617 22C8.20698 22 8.20779 22 8.20861 22C8.20942 22 8.21024 22 8.21105 22C8.21187 22 8.21269 22 8.21351 22C8.21433 22 8.21515 22 8.21598 22C8.2168 22 8.21763 22 8.21846 22C8.21929 22 8.22012 22 8.22095 22C8.22178 22 8.22261 22 8.22345 22C8.22428 22 8.22512 22 8.22596 22C8.2268 22 8.22764 22 8.22848 22C8.22932 22 8.23017 22 8.23101 22C8.23186 22 8.2327 22 8.23355 22C8.2344 22 8.23525 22 8.2361 22C8.23696 22 8.23781 22 8.23867 22C8.23952 22 8.24038 22 8.24124 22C8.2421 22 8.24296 22 8.24382 22C8.24468 22 8.24555 22 8.24641 22C8.24728 22 8.24815 22 8.24902 22C8.24989 22 8.25076 22 8.25163 22C8.2525 22 8.25338 22 8.25425 22C8.25513 22 8.256 22 8.25688 22C8.25776 22 8.25864 22 8.25953 22C8.26041 22 8.26129 22 8.26218 22C8.26306 22 8.26395 22 8.26484 22C8.26573 22 8.26662 22 8.26751 22C8.2684 22 8.26929 22 8.27019 22C8.27108 22 8.27198 22 8.27288 22C8.27378 22 8.27467 22 8.27558 22C8.27648 22 8.27738 22 8.27828 22C8.27919 22 8.28009 22 8.281 22C8.28191 22 8.28282 22 8.28373 22C8.28464 22 8.28555 22 8.28646 22C8.28738 22 8.28829 22 8.28921 22C8.29012 22 8.29104 22 8.29196 22C8.29288 22 8.2938 22 8.29472 22C8.29564 22 8.29657 22 8.29749 22C8.29842 22 8.29935 22 8.30027 22C8.3012 22 8.30213 22 8.30306 22C8.30399 22 8.30493 22 8.30586 22C8.30679 22 8.30773 22 8.30867 22C8.3096 22 8.31054 22 8.31148 22C8.31242 22 8.31336 22 8.3143 22C8.31524 22 8.31619 22 8.31713 22C8.31808 22 8.31903 22 8.31997 22C8.32092 22 8.32187 22 8.32282 22C8.32377 22 8.32472 22 8.32568 22C8.32663 22 8.32758 22 8.32854 22C8.3295 22 8.33045 22 8.33141 22C8.33237 22 8.33333 22 8.33429 22C8.33525 22 8.33622 22 8.33718 22C8.33815 22 8.33911 22 8.34008 22C8.34104 22 8.34201 22 8.34298 22C8.34395 22 8.34492 22 8.34589 22C8.34687 22 8.34784 22 8.34881 22C8.34979 22 8.35076 22 8.35174 22C8.35272 22 8.35369 22 8.35467 22C8.35565 22 8.35663 22 8.35762 22C8.3586 22 8.35958 22 8.36057 22C8.36155 22 8.36254 22 8.36352 22C8.36451 22 8.3655 22 8.36649 22C8.36748 22 8.36847 22 8.36946 22C8.37045 22 8.37144 22 8.37244 22C8.37343 22 8.37443 22 8.37542 22C8.37642 22 8.37742 22 8.37842 22C8.37942 22 8.38042 22 8.38142 22C8.38242 22 8.38342 22 8.38442 22C8.38543 22 8.38643 22 8.38744 22C8.38844 22 8.38945 22 8.39046 22C8.39147 22 8.39248 22 8.39349 22C8.3945 22 8.39551 22 8.39652 22C8.39753 22 8.39855 22 8.39956 22C8.40058 22 8.40159 22 8.40261 22C8.40363 22 8.40464 22 8.40566 22C8.40668 22 8.4077 22 8.40872 22C8.40974 22 8.41077 22 8.41179 22C8.41281 22 8.41384 22 8.41486 22C8.41589 22 8.41691 22 8.41794 22C8.41897 22 8.42 22 8.42103 22C8.42206 22 8.42309 22 8.42412 22C8.42515 22 8.42618 22 8.42722 22C8.42825 22 8.42929 22 8.43032 22C8.43136 22 8.43239 22 8.43343 22C8.43447 22 8.43551 22 8.43655 22C8.43759 22 8.43863 22 8.43967 22C8.44071 22 8.44175 22 8.44279 22C8.44384 22 8.44488 22 8.44593 22C8.44697 22 8.44802 22 8.44907 22C8.45011 22 8.45116 22 8.45221 22C8.45326 22 8.45431 22 8.45536 22C8.45641 22 8.45746 22 8.45852 22C8.45957 22 8.46062 22 8.46168 22C8.46273 22 8.46379 22 8.46484 22C8.4659 22 8.46695 22 8.46801 22C8.46907 22 8.47013 22 8.47119 22C8.47225 22 8.47331 22 8.47437 22C8.47543 22 8.47649 22 8.47756 22C8.47862 22 8.47968 22 8.48075 22C8.48181 22 8.48288 22 8.48395 22C8.48501 22 8.48608 22 8.48715 22C8.48821 22 8.48928 22 8.49035 22C8.49142 22 8.49249 22 8.49356 22C8.49464 22 8.49571 22 8.49678 22C8.49785 22 8.49893 22 8.5 22C8.50107 22 8.50215 22 8.50322 22C8.5043 22 8.50538 22 8.50645 22C8.50753 22 8.50861 22 8.50969 22C8.51077 22 8.51185 22 8.51293 22C8.51401 22 8.51509 22 8.51617 22C8.51725 22 8.51833 22 8.51942 22C8.5205 22 8.52158 22 8.52267 22C8.52375 22 8.52484 22 8.52592 22C8.52701 22 8.52809 22 8.52918 22C8.53027 22 8.53136 22 8.53244 22C8.53353 22 8.53462 22 8.53571 22C8.5368 22 8.53789 22 8.53898 22C8.54007 22 8.54117 22 8.54226 22C8.54335 22 8.54444 22 8.54554 22C8.54663 22 8.54773 22 8.54882 22C8.54991 22 8.55101 22 8.55211 22C8.5532 22 8.5543 22 8.5554 22C8.55649 22 8.55759 22 8.55869 22C8.55979 22 8.56089 22 8.56199 22C8.56308 22 8.56418 22 8.56529 22C8.56639 22 8.56749 22 8.56859 22C8.56969 22 8.57079 22 8.5719 22C8.573 22 8.5741 22 8.5752 22C8.57631 22 8.57741 22 8.57852 22C8.57962 22 8.58073 22 8.58183 22C8.58294 22 8.58405 22 8.58515 22C8.58626 22 8.58737 22 8.58848 22C8.58958 22 8.59069 22 8.5918 22C8.59291 22 8.59402 22 8.59513 22C8.59624 22 8.59735 22 8.59846 22C8.59957 22 8.60068 22 8.60179 22C8.6029 22 8.60401 22 8.60513 22C8.60624 22 8.60735 22 8.60847 22C8.60958 22 8.61069 22 8.61181 22C8.61292 22 8.61403 22 8.61515 22C8.61626 22 8.61738 22 8.6185 22C8.61961 22 8.62073 22 8.62184 22C8.62296 22 8.62408 22 8.62519 22C8.62631 22 8.62743 22 8.62855 22C8.62966 22 8.63078 22 8.6319 22C8.63302 22 8.63414 22 8.63526 22C8.63638 22 8.6375 22 8.63862 22C8.63974 22 8.64086 22 8.64198 22C8.6431 22 8.64422 22 8.64534 22C8.64646 22 8.64758 22 8.6487 22C8.64983 22 8.65095 22 8.65207 22C8.65319 22 8.65431 22 8.65544 22C8.65656 22 8.65768 22 8.65881 22C8.65993 22 8.66105 22 8.66218 22C8.6633 22 8.66443 22 8.66555 22C8.66668 22 8.6678 22 8.66893 22C8.67005 22 8.67118 22 8.6723 22C8.67343 22 8.67455 22 8.67568 22C8.6768 22 8.67793 22 8.67906 22C8.68018 22 8.68131 22 8.68243 22C8.68356 22 8.68469 22 8.68581 22C8.68694 22 8.68807 22 8.6892 22C8.69032 22 8.69145 22 8.69258 22C8.69371 22 8.69483 22 8.69596 22C8.69709 22 8.69822 22 8.69935 22C8.70047 22 8.7016 22 8.70273 22C8.70386 22 8.70499 22 8.70612 22C8.70725 22 8.70837 22 8.7095 22C8.71063 22 8.71176 22 8.71289 22C8.71402 22 8.71515 22 8.71628 22C8.71741 22 8.71854 22 8.71967 22C8.7208 22 8.72193 22 8.72306 22C8.72418 22 8.72531 22 8.72644 22C8.72757 22 8.7287 22 8.72983 22C8.73096 22 8.73209 22 8.73322 22C8.73435 22 8.73548 22 8.73661 22C8.73774 22 8.73887 22 8.74 22C8.74113 22 8.74226 22 8.74339 22C8.74452 22 8.74565 22 8.74678 22C8.74791 22 8.74904 22 8.75017 22C8.7513 22 8.75243 22 8.75356 22C8.75469 22 8.75582 22 8.75695 22C8.75808 22 8.75921 22 8.76034 22C8.76147 22 8.7626 22 8.76373 22C8.76486 22 8.76599 22 8.76712 22C8.76825 22 8.76938 22 8.77051 22C8.77164 22 8.77277 22 8.7739 22C8.77503 22 8.77615 22 8.77728 22C8.77841 22 8.77954 22 8.78067 22C8.7818 22 8.78293 22 8.78406 22C8.78519 22 8.78631 22 8.78744 22C8.78857 22 8.7897 22 8.79083 22C8.79195 22 8.79308 22 8.79421 22C8.79534 22 8.79647 22 8.79759 22C8.79872 22 8.79985 22 8.80097 22C8.8021 22 8.80323 22 8.80436 22C8.80548 22 8.80661 22 8.80773 22C8.80886 22 8.80999 22 8.81111 22C8.81224 22 8.81336 22 8.81449 22C8.81562 22 8.81674 22 8.81787 22C8.81899 22 8.82012 22 8.82124 22C8.82236 22 8.82349 22 8.82461 22C8.82574 22 8.82686 22 8.82798 22C8.82911 22 8.83023 22 8.83135 22C8.83248 22 8.8336 22 8.83472 22C8.83585 22 8.83697 22 8.83809 22C8.83921 22 8.84033 22 8.84145 22C8.84258 22 8.8437 22 8.84482 22C8.84594 22 8.84706 22 8.84818 22C8.8493 22 8.85042 22 8.85154 22C8.85266 22 8.85378 22 8.8549 22C8.85601 22 8.85713 22 8.85825 22C8.85937 22 8.86049 22 8.8616 22C8.86272 22 8.86384 22 8.86495 22C8.86607 22 8.86719 22 8.8683 22C8.86942 22 8.87053 22 8.87165 22C8.87277 22 8.87388 22 8.87499 22C8.87611 22 8.87722 22 8.87834 22C8.87945 22 8.88056 22 8.88167 22C8.88279 22 8.8839 22 8.88501 22C8.88612 22 8.88723 22 8.88835 22C8.88946 22 8.89057 22 8.89168 22C8.89279 22 8.8939 22 8.895 22C8.89611 22 8.89722 22 8.89833 22C8.89944 22 8.90055 22 8.90165 22C8.90276 22 8.90387 22 8.90497 22C8.90608 22 8.90719 22 8.90829 22C8.9094 22 8.9105 22 8.9116 22C8.91271 22 8.91381 22 8.91491 22C8.91602 22 8.91712 22 8.91822 22C8.91932 22 8.92043 22 8.92153 22C8.92263 22 8.92373 22 8.92483 22C8.92593 22 8.92703 22 8.92813 22C8.92922 22 8.93032 22 8.93142 22C8.93252 22 8.93361 22 8.93471 22C8.93581 22 8.9369 22 8.938 22C8.93909 22 8.94019 22 8.94128 22C8.94237 22 8.94347 22 8.94456 22C8.94565 22 8.94674 22 8.94784 22C8.94893 22 8.95002 22 8.95111 22C8.9522 22 8.95329 22 8.95438 22C8.95547 22 8.95655 22 8.95764 22C8.95873 22 8.95982 22 8.9609 22C8.96199 22 8.96307 22 8.96416 22C8.96524 22 8.96633 22 8.96741 22C8.96849 22 8.96958 22 8.97066 22C8.97174 22 8.97282 22 8.9739 22C8.97498 22 8.97606 22 8.97714 22C8.97822 22 8.9793 22 8.98038 22C8.98145 22 8.98253 22 8.98361 22C8.98468 22 8.98576 22 8.98683 22C8.98791 22 8.98898 22 8.99006 22C8.99113 22 8.9922 22 8.99327 22C8.99434 22 8.99542 22 8.99649 22C8.99756 22 8.99862 22 8.99969 22C9.00076 22 9.00183 22 9.0029 22C9.00396 22 9.00503 22 9.00609 22C9.00716 22 9.00822 22 9.00929 22C9.01035 22 9.01141 22 9.01248 22C9.01354 22 9.0146 22 9.01566 22C9.01672 22 9.01778 22 9.01884 22C9.01989 22 9.02095 22 9.02201 22C9.02306 22 9.02412 22 9.02518 22C9.02623 22 9.02728 22 9.02834 22C9.02939 22 9.03044 22 9.03149 22C9.03255 22 9.0336 22 9.03465 22C9.0357 22 9.03674 22 9.03779 22C9.03884 22 9.03989 22 9.04093 22C9.04198 22 9.04302 22 9.04407 22C9.04511 22 9.04615 22 9.0472 22C9.04824 22 9.04928 22 9.05032 22C9.05136 22 9.0524 22 9.05344 22C9.05447 22 9.05551 22 9.05655 22C9.05758 22 9.05862 22 9.05965 22C9.06069 22 9.06172 22 9.06275 22C9.06378 22 9.06482 22 9.06585 22C9.06688 22 9.0679 22 9.06893 22C9.06996 22 9.07099 22 9.07201 22C9.07304 22 9.07407 22 9.07509 22C9.07611 22 9.07714 22 9.07816 22C9.07918 22 9.0802 22 9.08122 22C9.08224 22 9.08326 22 9.08428 22C9.08529 22 9.08631 22 9.08733 22C9.08834 22 9.08935 22 9.09037 22C9.09138 22 9.09239 22 9.0934 22C9.09441 22 9.09542 22 9.09643 22C9.09744 22 9.09845 22 9.09946 22C9.10046 22 9.10147 22 9.10247 22C9.10348 22 9.10448 22 9.10548 22C9.10648 22 9.10748 22 9.10848 22C9.10948 22 9.11048 22 9.11148 22C9.11247 22 9.11347 22 9.11447 22C9.11546 22 9.11645 22 9.11745 22C9.11844 22 9.11943 22 9.12042 22C9.12141 22 9.1224 22 9.12339 22C9.12437 22 9.12536 22 9.12635 22C9.12733 22 9.12831 22 9.1293 22C9.13028 22 9.13126 22 9.13224 22C9.13322 22 9.1342 22 9.13518 22C9.13616 22 9.13713 22 9.13811 22C9.13908 22 9.14006 22 9.14103 22C9.142 22 9.14297 22 9.14394 22C9.14491 22 9.14588 22 9.14685 22C9.14782 22 9.14878 22 9.14975 22C9.15071 22 9.15168 22 9.15264 22C9.1536 22 9.15456 22 9.15552 22C9.15648 22 9.15744 22 9.15839 22C9.15935 22 9.16031 22 9.16126 22C9.16222 22 9.16317 22 9.16412 22C9.16507 22 9.16602 22 9.16697 22C9.16792 22 9.16887 22 9.16981 22C9.17076 22 9.1717 22 9.17264 22C9.17359 22 9.17453 22 9.17547 22C9.17641 22 9.17735 22 9.17829 22C9.17922 22 9.18016 22 9.1811 22C9.18203 22 9.18296 22 9.1839 22C9.18483 22 9.18576 22 9.18669 22C9.18761 22 9.18854 22 9.18947 22C9.19039 22 9.19132 22 9.19224 22C9.19316 22 9.19409 22 9.19501 22C9.19593 22 9.19685 22 9.19776 22C9.19868 22 9.1996 22 9.20051 22C9.20142 22 9.20234 22 9.20325 22C9.20416 22 9.20507 22 9.20598 22C9.20688 22 9.20779 22 9.2087 22C9.2096 22 9.2105 22 9.21141 22C9.21231 22 9.21321 22 9.21411 22C9.21501 22 9.2159 22 9.2168 22C9.2177 22 9.21859 22 9.21948 22C9.22038 22 9.22127 22 9.22216 22C9.22305 22 9.22393 22 9.22482 22C9.22571 22 9.22659 22 9.22747 22C9.22836 22 9.22924 22 9.23012 22C9.231 22 9.23188 22 9.23275 22C9.23363 22 9.2345 22 9.23538 22C9.23625 22 9.23712 22 9.23799 22C9.23886 22 9.23973 22 9.2406 22C9.24147 22 9.24233 22 9.24319 22C9.24406 22 9.24492 22 9.24578 22C9.24664 22 9.2475 22 9.24835 22C9.24921 22 9.25007 22 9.25092 22C9.25177 22 9.25262 22 9.25348 22C9.25432 22 9.25517 22 9.25602 22C9.25687 22 9.25771 22 9.25855 22C9.2594 22 9.26024 22 9.26108 22C9.26192 22 9.26276 22 9.26359 22C9.26443 22 9.26526 22 9.2661 22C9.26693 22 9.26776 22 9.26859 22C9.26942 22 9.27024 22 9.27107 22C9.27189 22 9.27272 22 9.27354 22C9.27436 22 9.27518 22 9.276 22C9.27682 22 9.27764 22 9.27845 22C9.27927 22 9.28008 22 9.28089 22C9.2817 22 9.28251 22 9.28332 22C9.28412 22 9.28493 22 9.28573 22C9.28654 22 9.28734 22 9.28814 22C9.28894 22 9.28974 22 9.29053 22C9.29133 22 9.29212 22 9.29292 22C9.29371 22 9.2945 22 9.29529 22C9.29608 22 9.29687 22 9.29765 22C9.29844 22 9.29922 22 9.3 22V20C9.29922 20 9.29844 20 9.29765 20C9.29687 20 9.29608 20 9.29529 20C9.2945 20 9.29371 20 9.29292 20C9.29212 20 9.29133 20 9.29053 20C9.28974 20 9.28894 20 9.28814 20C9.28734 20 9.28654 20 9.28573 20C9.28493 20 9.28412 20 9.28332 20C9.28251 20 9.2817 20 9.28089 20C9.28008 20 9.27927 20 9.27845 20C9.27764 20 9.27682 20 9.276 20C9.27518 20 9.27436 20 9.27354 20C9.27272 20 9.27189 20 9.27107 20C9.27024 20 9.26942 20 9.26859 20C9.26776 20 9.26693 20 9.2661 20C9.26526 20 9.26443 20 9.26359 20C9.26276 20 9.26192 20 9.26108 20C9.26024 20 9.2594 20 9.25855 20C9.25771 20 9.25687 20 9.25602 20C9.25517 20 9.25432 20 9.25348 20C9.25262 20 9.25177 20 9.25092 20C9.25007 20 9.24921 20 9.24835 20C9.2475 20 9.24664 20 9.24578 20C9.24492 20 9.24406 20 9.24319 20C9.24233 20 9.24147 20 9.2406 20C9.23973 20 9.23886 20 9.23799 20C9.23712 20 9.23625 20 9.23538 20C9.2345 20 9.23363 20 9.23275 20C9.23188 20 9.231 20 9.23012 20C9.22924 20 9.22836 20 9.22747 20C9.22659 20 9.22571 20 9.22482 20C9.22393 20 9.22305 20 9.22216 20C9.22127 20 9.22038 20 9.21948 20C9.21859 20 9.2177 20 9.2168 20C9.2159 20 9.21501 20 9.21411 20C9.21321 20 9.21231 20 9.21141 20C9.2105 20 9.2096 20 9.2087 20C9.20779 20 9.20688 20 9.20598 20C9.20507 20 9.20416 20 9.20325 20C9.20234 20 9.20142 20 9.20051 20C9.1996 20 9.19868 20 9.19776 20C9.19685 20 9.19593 20 9.19501 20C9.19409 20 9.19316 20 9.19224 20C9.19132 20 9.19039 20 9.18947 20C9.18854 20 9.18761 20 9.18669 20C9.18576 20 9.18483 20 9.1839 20C9.18296 20 9.18203 20 9.1811 20C9.18016 20 9.17922 20 9.17829 20C9.17735 20 9.17641 20 9.17547 20C9.17453 20 9.17359 20 9.17264 20C9.1717 20 9.17076 20 9.16981 20C9.16887 20 9.16792 20 9.16697 20C9.16602 20 9.16507 20 9.16412 20C9.16317 20 9.16222 20 9.16126 20C9.16031 20 9.15935 20 9.15839 20C9.15744 20 9.15648 20 9.15552 20C9.15456 20 9.1536 20 9.15264 20C9.15168 20 9.15071 20 9.14975 20C9.14878 20 9.14782 20 9.14685 20C9.14588 20 9.14491 20 9.14394 20C9.14297 20 9.142 20 9.14103 20C9.14006 20 9.13908 20 9.13811 20C9.13713 20 9.13616 20 9.13518 20C9.1342 20 9.13322 20 9.13224 20C9.13126 20 9.13028 20 9.1293 20C9.12831 20 9.12733 20 9.12635 20C9.12536 20 9.12437 20 9.12339 20C9.1224 20 9.12141 20 9.12042 20C9.11943 20 9.11844 20 9.11745 20C9.11645 20 9.11546 20 9.11447 20C9.11347 20 9.11247 20 9.11148 20C9.11048 20 9.10948 20 9.10848 20C9.10748 20 9.10648 20 9.10548 20C9.10448 20 9.10348 20 9.10247 20C9.10147 20 9.10046 20 9.09946 20C9.09845 20 9.09744 20 9.09643 20C9.09542 20 9.09441 20 9.0934 20C9.09239 20 9.09138 20 9.09037 20C9.08935 20 9.08834 20 9.08733 20C9.08631 20 9.08529 20 9.08428 20C9.08326 20 9.08224 20 9.08122 20C9.0802 20 9.07918 20 9.07816 20C9.07714 20 9.07611 20 9.07509 20C9.07407 20 9.07304 20 9.07201 20C9.07099 20 9.06996 20 9.06893 20C9.0679 20 9.06688 20 9.06585 20C9.06482 20 9.06378 20 9.06275 20C9.06172 20 9.06069 20 9.05965 20C9.05862 20 9.05758 20 9.05655 20C9.05551 20 9.05447 20 9.05344 20C9.0524 20 9.05136 20 9.05032 20C9.04928 20 9.04824 20 9.0472 20C9.04615 20 9.04511 20 9.04407 20C9.04302 20 9.04198 20 9.04093 20C9.03989 20 9.03884 20 9.03779 20C9.03674 20 9.0357 20 9.03465 20C9.0336 20 9.03255 20 9.03149 20C9.03044 20 9.02939 20 9.02834 20C9.02728 20 9.02623 20 9.02518 20C9.02412 20 9.02306 20 9.02201 20C9.02095 20 9.01989 20 9.01884 20C9.01778 20 9.01672 20 9.01566 20C9.0146 20 9.01354 20 9.01248 20C9.01141 20 9.01035 20 9.00929 20C9.00822 20 9.00716 20 9.00609 20C9.00503 20 9.00396 20 9.0029 20C9.00183 20 9.00076 20 8.99969 20C8.99862 20 8.99756 20 8.99649 20C8.99542 20 8.99434 20 8.99327 20C8.9922 20 8.99113 20 8.99006 20C8.98898 20 8.98791 20 8.98683 20C8.98576 20 8.98468 20 8.98361 20C8.98253 20 8.98145 20 8.98038 20C8.9793 20 8.97822 20 8.97714 20C8.97606 20 8.97498 20 8.9739 20C8.97282 20 8.97174 20 8.97066 20C8.96958 20 8.96849 20 8.96741 20C8.96633 20 8.96524 20 8.96416 20C8.96307 20 8.96199 20 8.9609 20C8.95982 20 8.95873 20 8.95764 20C8.95655 20 8.95547 20 8.95438 20C8.95329 20 8.9522 20 8.95111 20C8.95002 20 8.94893 20 8.94784 20C8.94674 20 8.94565 20 8.94456 20C8.94347 20 8.94237 20 8.94128 20C8.94019 20 8.93909 20 8.938 20C8.9369 20 8.93581 20 8.93471 20C8.93361 20 8.93252 20 8.93142 20C8.93032 20 8.92922 20 8.92813 20C8.92703 20 8.92593 20 8.92483 20C8.92373 20 8.92263 20 8.92153 20C8.92043 20 8.91932 20 8.91822 20C8.91712 20 8.91602 20 8.91491 20C8.91381 20 8.91271 20 8.9116 20C8.9105 20 8.9094 20 8.90829 20C8.90719 20 8.90608 20 8.90497 20C8.90387 20 8.90276 20 8.90165 20C8.90055 20 8.89944 20 8.89833 20C8.89722 20 8.89611 20 8.895 20C8.8939 20 8.89279 20 8.89168 20C8.89057 20 8.88946 20 8.88835 20C8.88723 20 8.88612 20 8.88501 20C8.8839 20 8.88279 20 8.88167 20C8.88056 20 8.87945 20 8.87834 20C8.87722 20 8.87611 20 8.87499 20C8.87388 20 8.87277 20 8.87165 20C8.87053 20 8.86942 20 8.8683 20C8.86719 20 8.86607 20 8.86495 20C8.86384 20 8.86272 20 8.8616 20C8.86049 20 8.85937 20 8.85825 20C8.85713 20 8.85601 20 8.8549 20C8.85378 20 8.85266 20 8.85154 20C8.85042 20 8.8493 20 8.84818 20C8.84706 20 8.84594 20 8.84482 20C8.8437 20 8.84258 20 8.84145 20C8.84033 20 8.83921 20 8.83809 20C8.83697 20 8.83585 20 8.83472 20C8.8336 20 8.83248 20 8.83135 20C8.83023 20 8.82911 20 8.82798 20C8.82686 20 8.82574 20 8.82461 20C8.82349 20 8.82236 20 8.82124 20C8.82012 20 8.81899 20 8.81787 20C8.81674 20 8.81562 20 8.81449 20C8.81336 20 8.81224 20 8.81111 20C8.80999 20 8.80886 20 8.80773 20C8.80661 20 8.80548 20 8.80436 20C8.80323 20 8.8021 20 8.80097 20C8.79985 20 8.79872 20 8.79759 20C8.79647 20 8.79534 20 8.79421 20C8.79308 20 8.79195 20 8.79083 20C8.7897 20 8.78857 20 8.78744 20C8.78631 20 8.78519 20 8.78406 20C8.78293 20 8.7818 20 8.78067 20C8.77954 20 8.77841 20 8.77728 20C8.77615 20 8.77503 20 8.7739 20C8.77277 20 8.77164 20 8.77051 20C8.76938 20 8.76825 20 8.76712 20C8.76599 20 8.76486 20 8.76373 20C8.7626 20 8.76147 20 8.76034 20C8.75921 20 8.75808 20 8.75695 20C8.75582 20 8.75469 20 8.75356 20C8.75243 20 8.7513 20 8.75017 20C8.74904 20 8.74791 20 8.74678 20C8.74565 20 8.74452 20 8.74339 20C8.74226 20 8.74113 20 8.74 20C8.73887 20 8.73774 20 8.73661 20C8.73548 20 8.73435 20 8.73322 20C8.73209 20 8.73096 20 8.72983 20C8.7287 20 8.72757 20 8.72644 20C8.72531 20 8.72418 20 8.72306 20C8.72193 20 8.7208 20 8.71967 20C8.71854 20 8.71741 20 8.71628 20C8.71515 20 8.71402 20 8.71289 20C8.71176 20 8.71063 20 8.7095 20C8.70837 20 8.70725 20 8.70612 20C8.70499 20 8.70386 20 8.70273 20C8.7016 20 8.70047 20 8.69935 20C8.69822 20 8.69709 20 8.69596 20C8.69483 20 8.69371 20 8.69258 20C8.69145 20 8.69032 20 8.6892 20C8.68807 20 8.68694 20 8.68581 20C8.68469 20 8.68356 20 8.68243 20C8.68131 20 8.68018 20 8.67906 20C8.67793 20 8.6768 20 8.67568 20C8.67455 20 8.67343 20 8.6723 20C8.67118 20 8.67005 20 8.66893 20C8.6678 20 8.66668 20 8.66555 20C8.66443 20 8.6633 20 8.66218 20C8.66105 20 8.65993 20 8.65881 20C8.65768 20 8.65656 20 8.65544 20C8.65431 20 8.65319 20 8.65207 20C8.65095 20 8.64983 20 8.6487 20C8.64758 20 8.64646 20 8.64534 20C8.64422 20 8.6431 20 8.64198 20C8.64086 20 8.63974 20 8.63862 20C8.6375 20 8.63638 20 8.63526 20C8.63414 20 8.63302 20 8.6319 20C8.63078 20 8.62966 20 8.62855 20C8.62743 20 8.62631 20 8.62519 20C8.62408 20 8.62296 20 8.62184 20C8.62073 20 8.61961 20 8.6185 20C8.61738 20 8.61626 20 8.61515 20C8.61403 20 8.61292 20 8.61181 20C8.61069 20 8.60958 20 8.60847 20C8.60735 20 8.60624 20 8.60513 20C8.60401 20 8.6029 20 8.60179 20C8.60068 20 8.59957 20 8.59846 20C8.59735 20 8.59624 20 8.59513 20C8.59402 20 8.59291 20 8.5918 20C8.59069 20 8.58958 20 8.58848 20C8.58737 20 8.58626 20 8.58515 20C8.58405 20 8.58294 20 8.58183 20C8.58073 20 8.57962 20 8.57852 20C8.57741 20 8.57631 20 8.5752 20C8.5741 20 8.573 20 8.5719 20C8.57079 20 8.56969 20 8.56859 20C8.56749 20 8.56639 20 8.56529 20C8.56418 20 8.56308 20 8.56199 20C8.56089 20 8.55979 20 8.55869 20C8.55759 20 8.55649 20 8.5554 20C8.5543 20 8.5532 20 8.55211 20C8.55101 20 8.54991 20 8.54882 20C8.54773 20 8.54663 20 8.54554 20C8.54444 20 8.54335 20 8.54226 20C8.54117 20 8.54007 20 8.53898 20C8.53789 20 8.5368 20 8.53571 20C8.53462 20 8.53353 20 8.53244 20C8.53136 20 8.53027 20 8.52918 20C8.52809 20 8.52701 20 8.52592 20C8.52484 20 8.52375 20 8.52267 20C8.52158 20 8.5205 20 8.51942 20C8.51833 20 8.51725 20 8.51617 20C8.51509 20 8.51401 20 8.51293 20C8.51185 20 8.51077 20 8.50969 20C8.50861 20 8.50753 20 8.50645 20C8.50538 20 8.5043 20 8.50322 20C8.50215 20 8.50107 20 8.5 20C8.49893 20 8.49785 20 8.49678 20C8.49571 20 8.49464 20 8.49356 20C8.49249 20 8.49142 20 8.49035 20C8.48928 20 8.48821 20 8.48715 20C8.48608 20 8.48501 20 8.48395 20C8.48288 20 8.48181 20 8.48075 20C8.47968 20 8.47862 20 8.47756 20C8.47649 20 8.47543 20 8.47437 20C8.47331 20 8.47225 20 8.47119 20C8.47013 20 8.46907 20 8.46801 20C8.46695 20 8.4659 20 8.46484 20C8.46379 20 8.46273 20 8.46168 20C8.46062 20 8.45957 20 8.45852 20C8.45746 20 8.45641 20 8.45536 20C8.45431 20 8.45326 20 8.45221 20C8.45116 20 8.45011 20 8.44907 20C8.44802 20 8.44697 20 8.44593 20C8.44488 20 8.44384 20 8.44279 20C8.44175 20 8.44071 20 8.43967 20C8.43863 20 8.43759 20 8.43655 20C8.43551 20 8.43447 20 8.43343 20C8.43239 20 8.43136 20 8.43032 20C8.42929 20 8.42825 20 8.42722 20C8.42618 20 8.42515 20 8.42412 20C8.42309 20 8.42206 20 8.42103 20C8.42 20 8.41897 20 8.41794 20C8.41691 20 8.41589 20 8.41486 20C8.41384 20 8.41281 20 8.41179 20C8.41077 20 8.40974 20 8.40872 20C8.4077 20 8.40668 20 8.40566 20C8.40464 20 8.40363 20 8.40261 20C8.40159 20 8.40058 20 8.39956 20C8.39855 20 8.39753 20 8.39652 20C8.39551 20 8.3945 20 8.39349 20C8.39248 20 8.39147 20 8.39046 20C8.38945 20 8.38844 20 8.38744 20C8.38643 20 8.38543 20 8.38442 20C8.38342 20 8.38242 20 8.38142 20C8.38042 20 8.37942 20 8.37842 20C8.37742 20 8.37642 20 8.37542 20C8.37443 20 8.37343 20 8.37244 20C8.37144 20 8.37045 20 8.36946 20C8.36847 20 8.36748 20 8.36649 20C8.3655 20 8.36451 20 8.36352 20C8.36254 20 8.36155 20 8.36057 20C8.35958 20 8.3586 20 8.35762 20C8.35663 20 8.35565 20 8.35467 20C8.35369 20 8.35272 20 8.35174 20C8.35076 20 8.34979 20 8.34881 20C8.34784 20 8.34687 20 8.34589 20C8.34492 20 8.34395 20 8.34298 20C8.34201 20 8.34104 20 8.34008 20C8.33911 20 8.33815 20 8.33718 20C8.33622 20 8.33525 20 8.33429 20C8.33333 20 8.33237 20 8.33141 20C8.33045 20 8.3295 20 8.32854 20C8.32758 20 8.32663 20 8.32568 20C8.32472 20 8.32377 20 8.32282 20C8.32187 20 8.32092 20 8.31997 20C8.31903 20 8.31808 20 8.31713 20C8.31619 20 8.31524 20 8.3143 20C8.31336 20 8.31242 20 8.31148 20C8.31054 20 8.3096 20 8.30867 20C8.30773 20 8.30679 20 8.30586 20C8.30493 20 8.30399 20 8.30306 20C8.30213 20 8.3012 20 8.30027 20C8.29935 20 8.29842 20 8.29749 20C8.29657 20 8.29564 20 8.29472 20C8.2938 20 8.29288 20 8.29196 20C8.29104 20 8.29012 20 8.28921 20C8.28829 20 8.28738 20 8.28646 20C8.28555 20 8.28464 20 8.28373 20C8.28282 20 8.28191 20 8.281 20C8.28009 20 8.27919 20 8.27828 20C8.27738 20 8.27648 20 8.27558 20C8.27467 20 8.27378 20 8.27288 20C8.27198 20 8.27108 20 8.27019 20C8.26929 20 8.2684 20 8.26751 20C8.26662 20 8.26573 20 8.26484 20C8.26395 20 8.26306 20 8.26218 20C8.26129 20 8.26041 20 8.25953 20C8.25864 20 8.25776 20 8.25688 20C8.256 20 8.25513 20 8.25425 20C8.25338 20 8.2525 20 8.25163 20C8.25076 20 8.24989 20 8.24902 20C8.24815 20 8.24728 20 8.24641 20C8.24555 20 8.24468 20 8.24382 20C8.24296 20 8.2421 20 8.24124 20C8.24038 20 8.23952 20 8.23867 20C8.23781 20 8.23696 20 8.2361 20C8.23525 20 8.2344 20 8.23355 20C8.2327 20 8.23186 20 8.23101 20C8.23017 20 8.22932 20 8.22848 20C8.22764 20 8.2268 20 8.22596 20C8.22512 20 8.22428 20 8.22345 20C8.22261 20 8.22178 20 8.22095 20C8.22012 20 8.21929 20 8.21846 20C8.21763 20 8.2168 20 8.21598 20C8.21515 20 8.21433 20 8.21351 20C8.21269 20 8.21187 20 8.21105 20C8.21024 20 8.20942 20 8.20861 20C8.20779 20 8.20698 20 8.20617 20C8.20536 20 8.20455 20 8.20375 20C8.20294 20 8.20214 20 8.20133 20C8.20053 20 8.19973 20 8.19893 20C8.19813 20 8.19733 20 8.19654 20C8.19574 20 8.19495 20 8.19416 20C8.19337 20 8.19258 20 8.19179 20C8.191 20 8.19022 20 8.18943 20C8.18865 20 8.18787 20 8.18709 20C8.18631 20 8.18553 20 8.18475 20C8.18397 20 8.1832 20 8.18243 20C8.18166 20 8.18088 20 8.18012 20C8.17935 20 8.17858 20 8.17782 20C8.17705 20 8.17629 20 8.17553 20C8.17477 20 8.17401 20 8.17325 20C8.17249 20 8.17174 20 8.17099 20C8.17023 20 8.16948 20 8.16873 20C8.16799 20 8.16724 20 8.16649 20C8.16575 20 8.16501 20 8.16426 20C8.16352 20 8.16279 20 8.16205 20C8.16131 20 8.16058 20 8.15984 20C8.15911 20 8.15838 20 8.15765 20C8.15692 20 8.1562 20 8.15547 20C8.15475 20 8.15402 20 8.1533 20C8.15258 20 8.15186 20 8.15115 20C8.15043 20 8.14972 20 8.14901 20C8.14829 20 8.14758 20 8.14687 20C8.14617 20 8.14546 20 8.14476 20C8.14405 20 8.14335 20 8.14265 20C8.14195 20 8.14126 20 8.14056 20C8.13986 20 8.13917 20 8.13848 20C8.13779 20 8.1371 20 8.13641 20C8.13573 20 8.13504 20 8.13436 20C8.13368 20 8.133 20 8.13232 20C8.13164 20 8.13096 20 8.13029 20C8.12962 20 8.12895 20 8.12828 20C8.12761 20 8.12694 20 8.12627 20C8.12561 20 8.12495 20 8.12429 20C8.12363 20 8.12297 20 8.12231 20C8.12165 20 8.121 20 8.12035 20C8.1197 20 8.11905 20 8.1184 20C8.11775 20 8.11711 20 8.11647 20C8.11582 20 8.11518 20 8.11454 20C8.11391 20 8.11327 20 8.11264 20C8.112 20 8.11137 20 8.11074 20C8.11011 20 8.10949 20 8.10886 20C8.10824 20 8.10762 20 8.107 20C8.10638 20 8.10576 20 8.10514 20C8.10453 20 8.10391 20 8.1033 20C8.10269 20 8.10209 20 8.10148 20C8.10087 20 8.10027 20 8.09967 20C8.09907 20 8.09847 20 8.09787 20C8.09727 20 8.09668 20 8.09609 20C8.0955 20 8.09491 20 8.09432 20C8.09373 20 8.09315 20 8.09257 20C8.09198 20 8.0914 20 8.09083 20C8.09025 20 8.08967 20 8.0891 20C8.08853 20 8.08796 20 8.08739 20C8.08682 20 8.08626 20 8.08569 20C8.08513 20 8.08457 20 8.08401 20C8.08345 20 8.0829 20 8.08234 20C8.08179 20 8.08124 20 8.08069 20C8.08014 20 8.0796 20 8.07905 20C8.07851 20 8.07797 20 8.07743 20C8.07689 20 8.07636 20 8.07582 20C8.07529 20 8.07476 20 8.07423 20C8.0737 20 8.07318 20 8.07265 20C8.07213 20 8.07161 20 8.07109 20C8.07057 20 8.07006 20 8.06954 20C8.06903 20 8.06852 20 8.06801 20C8.0675 20 8.067 20 8.06649 20C8.06599 20 8.06549 20 8.06499 20C8.06449 20 8.064 20 8.0635 20C8.06301 20 8.06252 20 8.06203 20C8.06154 20 8.06106 20 8.06058 20C8.06009 20 8.05961 20 8.05914 20C8.05866 20 8.05819 20 8.05771 20C8.05724 20 8.05677 20 8.0563 20C8.05584 20 8.05537 20 8.05491 20C8.05445 20 8.05399 20 8.05354 20C8.05308 20 8.05263 20 8.05217 20C8.05172 20 8.05127 20 8.05083 20C8.05038 20 8.04994 20 8.0495 20C8.04906 20 8.04862 20 8.04819 20C8.04775 20 8.04732 20 8.04689 20C8.04646 20 8.04603 20 8.04561 20C8.04519 20 8.04476 20 8.04435 20C8.04393 20 8.04351 20 8.0431 20C8.04269 20 8.04227 20 8.04187 20C8.04146 20 8.04105 20 8.04065 20C8.04025 20 8.03985 20 8.03945 20C8.03906 20 8.03866 20 8.03827 20C8.03788 20 8.03749 20 8.03711 20C8.03672 20 8.03634 20 8.03596 20C8.03558 20 8.0352 20 8.03483 20C8.03445 20 8.03408 20 8.03371 20C8.03334 20 8.03298 20 8.03261 20C8.03225 20 8.03189 20 8.03153 20C8.03117 20 8.03082 20 8.03047 20C8.03012 20 8.02977 20 8.02942 20C8.02908 20 8.02873 20 8.02839 20C8.02805 20 8.02771 20 8.02738 20C8.02704 20 8.02671 20 8.02638 20C8.02605 20 8.02573 20 8.02541 20C8.02508 20 8.02476 20 8.02445 20C8.02413 20 8.02381 20 8.0235 20C8.02319 20 8.02288 20 8.02258 20C8.02227 20 8.02197 20 8.02167 20C8.02137 20 8.02107 20 8.02078 20C8.02048 20 8.02019 20 8.01991 20C8.01962 20 8.01933 20 8.01905 20C8.01877 20 8.01849 20 8.01821 20C8.01794 20 8.01767 20 8.0174 20C8.01713 20 8.01686 20 8.01659 20C8.01633 20 8.01607 20 8.01581 20C8.01555 20 8.0153 20 8.01505 20C8.0148 20 8.01455 20 8.0143 20C8.01405 20 8.01381 20 8.01357 20C8.01333 20 8.0131 20 8.01286 20C8.01263 20 8.0124 20 8.01217 20C8.01194 20 8.01172 20 8.0115 20C8.01128 20 8.01106 20 8.01084 20C8.01063 20 8.01041 20 8.01021 20C8.01 20 8.00979 20 8.00959 20C8.00938 20 8.00918 20 8.00899 20C8.00879 20 8.0086 20 8.00841 20C8.00822 20 8.00803 20 8.00785 20C8.00766 20 8.00748 20 8.0073 20C8.00713 20 8.00695 20 8.00678 20C8.00661 20 8.00644 20 8.00627 20C8.00611 20 8.00595 20 8.00579 20C8.00563 20 8.00547 20 8.00532 20C8.00517 20 8.00502 20 8.00487 20C8.00473 20 8.00459 20 8.00445 20C8.00431 20 8.00417 20 8.00404 20C8.0039 20 8.00377 20 8.00365 20C8.00352 20 8.0034 20 8.00328 20C8.00316 20 8.00304 20 8.00293 20C8.00281 20 8.0027 20 8.00259 20C8.00249 20 8.00238 20 8.00228 20C8.00218 20 8.00208 20 8.00199 20C8.0019 20 8.00181 20 8.00172 20C8.00163 20 8.00155 20 8.00147 20C8.00138 20 8.00131 20 8.00123 20C8.00116 20 8.00109 20 8.00102 20C8.00095 20 8.00089 20 8.00083 20C8.00077 20 8.00071 20 8.00065 20C8.0006 20 8.00055 20 8.0005 20C8.00045 20 8.00041 20 8.00037 20C8.00033 20 8.00029 20 8.00026 20C8.00022 20 8.00019 20 8.00016 20C8.00014 20 8.00011 20 8.00009 20C8.00007 20 8.00005 20 8.00004 20C8.00003 20 8.00002 20 8.00001 20C8 20 8 20 8 21ZM9.3 22C12.182 22 14.1018 22.3057 15.4952 22.7366C16.8746 23.1632 17.7863 23.7266 18.6599 24.325C19.5263 24.9185 20.4529 25.6243 21.7168 26.1437C23.0043 26.6728 24.6014 27 26.9 27V25C24.7986 25 23.4707 24.7022 22.477 24.2938C21.4596 23.8757 20.7487 23.3315 19.7901 22.675C18.8387 22.0234 17.7379 21.3368 16.0861 20.8259C14.4482 20.3193 12.318 20 9.3 20V22ZM26.9 27H27.4V25H26.9V27ZM27.4 27C29.3523 27 31 25.3523 31 23.4H29C29 24.2477 28.2477 25 27.4 25V27ZM31 3.6C31 1.64771 29.3523 0 27.4 0V2C28.2477 2 29 2.75228 29 3.6H31ZM8 20C6.15237 20 4.6754 19.5375 3.66896 18.6317C2.68147 17.743 2 16.2946 2 14H0C0 16.7054 0.818527 18.757 2.33104 20.1183C3.8246 21.4625 5.84763 22 8 22V20ZM2 14C2 11.6454 2.68991 9.90472 3.73687 8.76353C4.77877 7.62786 6.25125 7 8 7V5C5.74875 5 3.72123 5.82214 2.26313 7.41147C0.810085 8.99528 0 11.2546 0 14H2ZM39 12H35V14H39V12ZM39.5498 20.1646L35.7498 17.6646L34.6506 19.3354L38.4506 21.8354L39.5498 20.1646ZM38.4355 4.77479L34.6355 7.37479L35.7649 9.0254L39.5649 6.42541L38.4355 4.77479ZM31 23.4V3.6H29V23.4H31Z" fill="#3374FF"/>
</svg>
